<?xml version="1.0" encoding="utf-8"?>
<!-- Generator: Adobe Illustrator 22.0.0, SVG Export Plug-In . SVG Version: 6.00 Build 0)  -->
<svg version="1.1" id="Layer_1" xmlns="http://www.w3.org/2000/svg" xmlns:xlink="http://www.w3.org/1999/xlink" x="0px" y="0px"
	 viewBox="0 0 70 70" style="enable-background:new 0 0 70 70;" xml:space="preserve">
<g>
	<path style="opacity:0.5;fill:#009BEF;" d="M56.6,25.5c0-12.9-10.4-23.4-23.3-23.4c-12.9,0-23.2,10.5-23.2,23.4h4.4
		c0-10.3,8.5-18.7,18.8-18.7S52,15.2,52,25.5H56.6z"/>
	<path style="fill:#009BEF;" d="M59.9,47.5l-3.4-22.6L10.1,25l0,42.9h27.2l0-9.1l11.5,0.1c2.6,0,5.5-1.9,5.5-4.5l0-6.9L59.9,47.5z
		 M36.6,48.5H30l1.3-7.8c-1.1-0.7-1.9-1.9-1.9-3.4c0-2.2,1.8-4,4-4s4,1.8,4,4c0,1.4-0.8,2.7-1.9,3.4L36.6,48.5z"/>
</g>
</svg>
