<?xml version="1.0" encoding="UTF-8"?>
<svg width="32px" height="32px" viewBox="0 0 32 32" version="1.1" xmlns="http://www.w3.org/2000/svg" xmlns:xlink="http://www.w3.org/1999/xlink">
    <!-- Generator: Sketch 57.1 (83088) - https://sketch.com -->
    <title>Group 5 Copy</title>
    <desc>Created with Sketch.</desc>
    <defs>
        <circle id="path-1" cx="12" cy="12" r="12"></circle>
        <filter x="-29.2%" y="-20.8%" width="158.3%" height="158.3%" filterUnits="objectBoundingBox" id="filter-2">
            <feOffset dx="0" dy="2" in="SourceAlpha" result="shadowOffsetOuter1"></feOffset>
            <feGaussianBlur stdDeviation="2" in="shadowOffsetOuter1" result="shadowBlurOuter1"></feGaussianBlur>
            <feColorMatrix values="0 0 0 0 0.352941176   0 0 0 0 0.407843137   0 0 0 0 0.447058824  0 0 0 0.5 0" type="matrix" in="shadowBlurOuter1"></feColorMatrix>
        </filter>
        <polygon id="path-3" points="0 18.6825087 16.8186186 18.6825087 16.8186186 0 0 0"></polygon>
    </defs>
    <g id="simple-sample" stroke="none" stroke-width="1" fill="none" fill-rule="evenodd">
        <g id="Desktop-Copy-3" transform="translate(-398.000000, -480.000000)">
            <g id="Group-5-Copy" transform="translate(402.000000, 482.000000)">
                <g id="Oval">
                    <use fill="black" fill-opacity="1" filter="url(#filter-2)" xlink:href="#path-1"></use>
                    <use fill="#734098" fill-rule="evenodd" xlink:href="#path-1"></use>
                </g>
                <g id="Page-1" transform="translate(4.000000, 3.000000)">
                    <path d="M8.40921242,4.88144164 C6.13109583,4.88144164 4.28442457,6.78256122 4.28442457,9.12784711 C4.28442457,9.97250106 4.52407336,10.7595151 4.93692024,11.4208781 L6.75240035,14.8635161 L10.2113249,14.8635161 L11.8815046,11.4208781 C12.2943515,10.7595151 12.5340003,9.97250106 12.5340003,9.12784711 C12.5340003,6.78256122 10.687329,4.88144164 8.40921242,4.88144164 L8.40921242,4.88144164 Z M8.40921242,5.39900409 C10.4064149,5.39900409 12.0312609,7.07175797 12.0312609,9.12784711 C12.0312609,9.8448556 11.8332649,10.5409223 11.4585836,11.1408559 L11.4438598,11.1643905 L11.4316545,11.1895207 L9.90038203,14.3457542 L7.05152545,14.3457542 L5.37882721,11.1737645 L5.36991545,11.157011 L5.35984129,11.1408559 C4.98515998,10.5409223 4.78716396,9.84465615 4.78716396,9.12784711 C4.78716396,7.07175797 6.41200994,5.39900409 8.40921242,5.39900409 L8.40921242,5.39900409 Z" id="Fill-1" fill="#FFFFFF"></path>
                    <path d="M6.40290445,8.81711019 L5.90016505,8.81711019 C5.90016505,7.56419022 6.89033887,6.5446221 8.10756878,6.5446221 L8.10756878,7.06218456 C7.16757204,7.062384 6.40290445,7.84959749 6.40290445,8.81711019" id="Fill-3" fill="#FFFFFF"></path>
                    <mask id="mask-4" fill="white">
                        <use xlink:href="#path-3"></use>
                    </mask>
                    <g id="Clip-6"></g>
                    <polygon id="Fill-5" fill="#FFFFFF" mask="url(#mask-4)" points="6.75240035 15.8164692 10.2252737 15.8164692 10.2252737 15.1624857 6.75240035 15.1624857"></polygon>
                    <polygon id="Fill-7" fill="#FFFFFF" mask="url(#mask-4)" points="6.75240035 16.7696218 10.2252737 16.7696218 10.2252737 16.1156383 6.75240035 16.1156383"></polygon>
                    <polygon id="Fill-8" fill="#FFFFFF" mask="url(#mask-4)" points="6.75240035 17.722575 10.2252737 17.722575 10.2252737 17.0685914 6.75240035 17.0685914"></polygon>
                    <polygon id="Fill-9" fill="#FFFFFF" mask="url(#mask-4)" points="7.47173422 18.6825087 9.50593987 18.6825087 9.50593987 18.0285252 7.47173422 18.0285252"></polygon>
                    <path d="M8.7122122,2.69810592 L8.7122122,0.00538504287 C8.61147058,0.00219390635 8.51053524,0 8.40921242,0 C8.30788961,0 8.20695426,0.00219390635 8.10621265,0.00538504287 L8.10621265,2.69810592 L8.7122122,2.69810592 Z" id="Fill-10" fill="#FFFFFF" mask="url(#mask-4)"></path>
                    <path d="M13.1925017,4.82659398 L14.9990701,2.96675973 C14.8626814,2.81318628 14.7214494,2.66439954 14.5759553,2.52000062 L12.7639624,4.38541936 L13.1925017,4.82659398 Z" id="Fill-11" fill="#FFFFFF" mask="url(#mask-4)"></path>
                    <path d="M14.3744721,9.62167549 L16.8066071,9.62167549 C16.8145502,9.45812974 16.8186186,9.29338732 16.8186186,9.12784711 C16.8186186,9.08436788 16.8176499,9.04108809 16.8170687,8.9978083 L14.3744721,8.9978083 L14.3744721,9.62167549 Z" id="Fill-12" fill="#FFFFFF" mask="url(#mask-4)"></path>
                    <path d="M2.44395279,8.9978083 L0.00154987097,8.9978083 C0.000968669357,9.04108809 0,9.08436788 0,9.12784711 C0,9.29338732 0.0040684113,9.45812974 0.0120115,9.62167549 L2.44414652,9.62167549 L2.44395279,8.9978083 Z" id="Fill-13" fill="#FFFFFF" mask="url(#mask-4)"></path>
                    <path d="M4.05446246,4.38541936 L2.24246956,2.52000062 C2.09697542,2.66439954 1.95574343,2.81318628 1.81935479,2.96675973 L3.62592314,4.82659398 L4.05446246,4.38541936 Z" id="Fill-14" fill="#FFFFFF" mask="url(#mask-4)"></path>
                </g>
            </g>
        </g>
    </g>
</svg>