<svg width="32" height="32" viewBox="0 0 32 32" fill="none" xmlns="http://www.w3.org/2000/svg">
    <path fill-rule="evenodd" clip-rule="evenodd"
          d="M22.6437 7.13083C21.4737 7.33896 19.8964 7.86262 17.6827 8.60051L12.6714 10.2709C10.8914 10.8643 9.6021 11.2947 8.69146 11.682C7.73939 12.0869 7.40071 12.3692 7.29071 12.5584C6.95191 13.1412 6.95191 13.861 7.29071 14.4437C7.40071 14.6329 7.73939 14.9152 8.69146 15.3201C9.6021 15.7075 10.8914 16.1379 12.6714 16.7312C12.6995 16.7406 12.7273 16.7498 12.7547 16.7589C13.1343 16.8852 13.4479 16.9895 13.722 17.1328L19.0454 11.8681C19.3471 11.5697 19.8335 11.5724 20.1319 11.8741C20.4303 12.1758 20.4276 12.6623 20.1259 12.9607L14.8259 18.2022C14.9912 18.494 15.103 18.8302 15.2411 19.2453C15.2502 19.2727 15.2594 19.3005 15.2688 19.3286C15.8621 21.1086 16.2925 22.3979 16.6799 23.3085C17.0848 24.2606 17.367 24.5993 17.5563 24.7093C18.139 25.0481 18.8588 25.0481 19.4416 24.7093C19.6308 24.5993 19.9131 24.2606 20.318 23.3085C20.7053 22.3979 21.1357 21.1086 21.7291 19.3286L23.3995 14.3173C24.1374 12.1036 24.661 10.5263 24.8692 9.35629C25.0783 8.18074 24.9185 7.6814 24.6185 7.38146C24.3186 7.08152 23.8193 6.92171 22.6437 7.13083ZM22.3746 5.61797C23.6768 5.38632 24.8496 5.43941 25.7051 6.29491C26.5606 7.15041 26.6137 8.32322 26.382 9.62542C26.1518 10.9197 25.5903 12.6041 24.8794 14.7367L23.1745 19.8515C22.596 21.5869 22.1465 22.9354 21.732 23.91C21.3322 24.85 20.8882 25.6457 20.2139 26.0377C19.1537 26.6541 17.8442 26.6541 16.784 26.0377C16.1096 25.6457 15.6657 24.85 15.2658 23.91C14.8513 22.9354 14.4018 21.5869 13.8234 19.8515L13.811 19.8145C13.6084 19.2065 13.5466 19.0416 13.4591 18.9109C13.3611 18.7646 13.2354 18.6389 13.0891 18.5409C12.9584 18.4534 12.7935 18.3916 12.1855 18.189L12.1485 18.1766C10.4131 17.5982 9.06463 17.1487 8.09005 16.7342C7.14996 16.3343 6.35431 15.8904 5.96228 15.216C5.34591 14.1558 5.34591 12.8463 5.96228 11.7861C6.35431 11.1118 7.14996 10.6678 8.09005 10.268C9.06464 9.85345 10.4131 9.40397 12.1485 8.8255L17.2633 7.12057C19.3959 6.4097 21.0803 5.84822 22.3746 5.61797Z"
          fill="#1F0000" fill-opacity="0.75"/>
</svg>
