<svg width="22" height="28" viewBox="0 0 22 28" fill="none" xmlns="http://www.w3.org/2000/svg">
<path d="M11 0C4.92487 0 0 5.60362 0 11.9C0 18.147 3.51082 24.9374 8.98847 27.5442C10.2654 28.1519 11.7346 28.1519 13.0115 27.5442C18.4892 24.9374 22 18.147 22 11.9C22 5.60362 17.0751 0 11 0Z" fill="#F53D47"/>
<path d="M15.9905 23.5249C15.9819 23.5322 15.9735 23.5397 15.9654 23.5476C13.3962 26.0262 11.3597 26.3881 9.85675 26.075C8.59261 25.8117 7.61191 25.0562 6.91634 24.4201C7.45037 24.0126 8.05043 23.5111 8.60362 22.9319C9.32892 22.1726 10.0002 21.2526 10.3192 20.2079C10.644 19.144 10.5949 17.9741 9.91412 16.7701C9.24381 15.5847 7.981 14.4002 5.94668 13.233C3.97879 12.1039 3.13645 11.1254 2.91736 10.3534C2.71747 9.64901 3.00402 8.95817 3.8154 8.25151C4.62983 7.54218 5.88462 6.90671 7.34397 6.37611C7.62025 6.27566 7.90244 6.17946 8.18865 6.08764C7.44169 6.66306 6.80133 7.34615 6.47836 8.13784C6.07597 9.1242 6.19728 10.2019 7.0226 11.2917C7.8244 12.3505 9.29234 13.4292 11.6021 14.5347C16.15 16.7115 17.607 18.6032 17.8245 20.0124C18.0393 21.405 17.0817 22.6062 15.9905 23.5249Z" fill="white" stroke="white" stroke-linejoin="round"/>
<path d="M10.9777 25.6708C15.0064 24.5588 18.1005 19.8232 11.6017 15.9165C4.59576 11.7048 2.36048 9.92287 6.26176 7.52716C7.26175 6.91308 8.38864 6.44285 11.9553 4.67078" stroke="#F53D47" stroke-width="0.5" stroke-linecap="round" stroke-dasharray="1 1"/>
</svg>
