<?xml version="1.0" encoding="utf-8"?>
<!-- Svg Vector Icons : http://www.onlinewebfonts.com/icon -->
<!DOCTYPE svg PUBLIC "-//W3C//DTD SVG 1.1//EN" "http://www.w3.org/Graphics/SVG/1.1/DTD/svg11.dtd">
<svg version="1.1" xmlns="http://www.w3.org/2000/svg" xmlns:xlink="http://www.w3.org/1999/xlink" x="0px" y="0px" viewBox="0 0 256 256" enable-background="new 0 0 256 256" xml:space="preserve">
<metadata> Svg Vector Icons : http://www.onlinewebfonts.com/icon </metadata>
<g><g><path fill="#000000" d="M10.4,73.3c0,0-2.4-22,22.4-22h152.9c0,0,26-2.8,26.4,22V118h-13.4l-1.2-43.9c0,0,0.4-9.8-11-8.9L35.5,64.4c0,0-11.7,0.4-11.5,10.4V175c0,0-1.3,11.5,11.4,11.1h127.7l7.5,6.6l0.9,12H32c0,0-22.7,3.3-21.9-32.6L10.4,73.3z"/><path fill="#000000" d="M48.3,97.3c0,9.5,7.7,17.2,17.2,17.2c9.5,0,17.2-7.7,17.2-17.2c0-9.5-7.7-17.2-17.2-17.2C56,80.1,48.3,87.8,48.3,97.3z"/><path fill="#000000" d="M103.2,139.1l16.2-28.1l38,49.7v9.8H50.6V158l25.5-31.6l6.6-0.7l15,15L103.2,139.1z"/><path fill="#000000" d="M205.6,123.8c-22.3,0-40.4,18.1-40.4,40.4s18.1,40.4,40.4,40.4c22.3,0,40.4-18.1,40.4-40.4S227.9,123.8,205.6,123.8z M232.2,172.2h-20.1v20.5h-13.6v-20.5h-20.3v-13.1h20.3v-20.5h13.6v20.5h20.1V172.2z"/></g></g>
</svg>