<svg width="24" height="24" viewBox="0 0 24 24" fill="none" xmlns="http://www.w3.org/2000/svg">
<g id="Outline / Video, Audio, Sound / Gallery Edit">
<g id="Vector">
<path fill-rule="evenodd" clip-rule="evenodd" d="M18.4488 1.98797C19.4327 1.00401 21.0281 1.00401 22.012 1.98797C22.996 2.97193 22.996 4.56724 22.012 5.5512L17.7604 9.80286C17.7502 9.81305 17.7401 9.82311 17.7302 9.83304C17.4994 10.0639 17.3387 10.2246 17.1585 10.3652C16.9467 10.5304 16.7174 10.6721 16.4749 10.7877C16.2686 10.886 16.053 10.9578 15.7433 11.061C15.73 11.0655 15.7165 11.07 15.7028 11.0745L13.8653 11.687C13.4243 11.834 12.9381 11.7192 12.6094 11.3905C12.2808 11.0619 12.166 10.5757 12.313 10.1347L12.9255 8.2972C12.93 8.28353 12.9345 8.27003 12.939 8.25672C13.0422 7.94696 13.114 7.73137 13.2123 7.5251C13.3279 7.28255 13.4696 7.05332 13.6348 6.84146C13.7753 6.66128 13.9361 6.50063 14.167 6.2698C14.1769 6.25987 14.1869 6.24982 14.1971 6.23962L18.4488 1.98797ZM20.9514 3.04863C20.5532 2.65046 19.9076 2.65046 19.5094 3.04863L19.3777 3.18035C19.3829 3.19659 19.3885 3.21331 19.3944 3.23049C19.4762 3.46613 19.6315 3.77841 19.9265 4.07345C20.2216 4.36849 20.5339 4.52382 20.7695 4.60558C20.7867 4.61154 20.8034 4.61709 20.8196 4.62226L20.9514 4.49054C21.3495 4.09237 21.3495 3.4468 20.9514 3.04863ZM19.6857 5.75618C19.4193 5.60682 19.1372 5.40542 18.8659 5.13411C18.5946 4.8628 18.3932 4.58066 18.2438 4.31427L15.2578 7.30028C14.9856 7.57251 14.8944 7.66554 14.8176 7.76399C14.7193 7.88995 14.6351 8.02623 14.5664 8.17043C14.5127 8.28313 14.4702 8.40631 14.3485 8.77154L14.1232 9.44743L14.5526 9.87678L15.2284 9.65148C15.5937 9.52974 15.7169 9.48732 15.8296 9.4336C15.9738 9.36488 16.11 9.28065 16.236 9.18241C16.3344 9.10563 16.4275 9.01442 16.6997 8.7422L19.6857 5.75618Z" fill="white"/>
<path fill-rule="evenodd" clip-rule="evenodd" d="M12 1.25L11.9426 1.25C9.63423 1.24999 7.82519 1.24998 6.41371 1.43975C4.96897 1.63399 3.82895 2.03933 2.93414 2.93414C2.03933 3.82895 1.63399 4.96897 1.43975 6.41371C1.24998 7.82519 1.24999 9.63423 1.25 11.9426V12.0574C1.24999 14.3658 1.24998 16.1748 1.43975 17.5863C1.63399 19.031 2.03933 20.1711 2.93414 21.0659C3.82895 21.9607 4.96897 22.366 6.41371 22.5603C7.82519 22.75 9.63423 22.75 11.9426 22.75H12.0574C14.3658 22.75 16.1748 22.75 17.5863 22.5603C19.031 22.366 20.1711 21.9607 21.0659 21.0659C21.9607 20.1711 22.366 19.031 22.5603 17.5863C22.75 16.1748 22.75 14.3658 22.75 12.0574V12C22.75 11.5858 22.4142 11.25 22 11.25C21.5858 11.25 21.25 11.5858 21.25 12C21.25 14.3782 21.2484 16.0864 21.0736 17.3864C21.0667 17.4377 21.0596 17.4882 21.0522 17.5378L18.2782 15.0412C16.9788 13.8718 15.0437 13.7553 13.6134 14.7605L13.3152 14.9701C12.8182 15.3193 12.1421 15.2608 11.7125 14.8313L7.42282 10.5415C6.28741 9.40612 4.46613 9.34547 3.25771 10.4028L2.75098 10.8462C2.75552 9.05395 2.78124 7.69302 2.92637 6.61358C3.09825 5.33517 3.42514 4.56445 3.9948 3.9948C4.56445 3.42514 5.33517 3.09825 6.61358 2.92637C7.91356 2.75159 9.62177 2.75 12 2.75C12.4142 2.75 12.75 2.41421 12.75 2C12.75 1.58579 12.4142 1.25 12 1.25ZM2.92637 17.3864C3.09825 18.6648 3.42514 19.4355 3.9948 20.0052C4.56445 20.5749 5.33517 20.9018 6.61358 21.0736C7.91356 21.2484 9.62177 21.25 12 21.25C14.3782 21.25 16.0864 21.2484 17.3864 21.0736C18.6648 20.9018 19.4355 20.5749 20.0052 20.0052C20.2487 19.7617 20.4479 19.4814 20.6096 19.1404C20.5707 19.1166 20.5334 19.089 20.4983 19.0574L17.2747 16.1562C16.4951 15.4545 15.334 15.3846 14.4758 15.9877L14.1776 16.1973C13.0843 16.9657 11.5968 16.8369 10.6519 15.8919L6.36216 11.6022C5.78515 11.0252 4.85958 10.9944 4.24546 11.5317L2.75038 12.8399C2.75296 14.7884 2.77289 16.2448 2.92637 17.3864Z" fill="white"/>
</g>
</g>
</svg>
