<svg width="95" height="44" viewBox="0 0 95 44" fill="none" xmlns="http://www.w3.org/2000/svg">
<path d="M18.2923 37.3643C18.3573 37.2239 18.3783 37.0827 18.4578 37.0202C18.5562 36.9427 18.7127 36.8831 18.8256 36.9073C18.8973 36.9227 18.9961 37.1185 18.9764 37.2091C18.9267 37.4384 18.8497 37.6777 18.7198 37.8665C18.6361 37.9882 18.4396 38.0278 18.2937 38.1042C18.257 37.9478 18.2056 37.7928 18.1901 37.6342C18.1827 37.5593 18.244 37.4773 18.2923 37.3643Z" fill="#F53D47"/>
<path d="M18.9665 30.7428C19.0694 30.9775 19.1829 31.1766 19.2279 31.391C19.2532 31.5112 19.1652 31.6566 19.1282 31.7907C19.0029 31.7366 18.833 31.7172 18.7623 31.6207C18.6444 31.46 18.5705 31.2556 18.5157 31.0586C18.4794 30.928 18.5088 30.778 18.5088 30.6367C18.6554 30.6624 18.802 30.688 18.9665 30.7428Z" fill="#F53D47"/>
<path d="M16.4339 27.3542C16.6109 27.5074 16.7896 27.6223 16.8964 27.7867C16.9543 27.876 16.9138 28.0598 16.8657 28.1786C16.8516 28.2132 16.6112 28.2167 16.555 28.1558C16.3012 27.8808 15.8171 27.7097 16.0444 27.1099C16.193 27.2031 16.2993 27.2698 16.4339 27.3542Z" fill="#F53D47"/>
<path d="M18.2748 29.51C18.2258 29.6789 18.1616 29.82 18.0503 30.0643C17.7911 29.6788 17.603 29.4429 17.4695 29.1779C17.4183 29.0763 17.4918 28.9083 17.5085 28.7705C17.6436 28.8207 17.8158 28.8339 17.9053 28.9294C18.0517 29.0855 18.1443 29.2951 18.2748 29.51Z" fill="#F53D47"/>
<path d="M14.5656 25.9683C14.8622 26.1695 15.1302 26.3514 15.3982 26.5333C15.3906 26.5919 15.3829 26.6505 15.3753 26.7092C15.2148 26.726 15.0163 26.812 14.9016 26.7453C14.6565 26.6029 14.4548 26.3814 14.2354 26.1923C14.3359 26.1112 14.4364 26.0301 14.5656 25.9683Z" fill="#F53D47"/>
<path d="M18.8857 35.8847C18.9187 35.6129 18.9748 35.3821 19.0156 35.1486C19.0776 34.7938 19.2633 34.7427 19.5684 34.9051C19.5283 35.1705 19.4864 35.435 19.449 35.7001C19.3922 36.1026 19.1932 36.1308 18.8857 35.8847Z" fill="#F53D47"/>
<path d="M13.1259 25.0435C13.2871 25.2507 13.559 25.5737 13.5235 25.6147C13.2468 25.9343 13.0888 25.5419 12.8772 25.4398C12.7898 25.3976 12.6848 25.3441 12.6427 25.2648C12.5843 25.1548 12.5776 25.0158 12.5488 24.8892C12.6738 24.9016 12.8006 24.9051 12.9231 24.9302C12.9841 24.9426 13.0374 24.9945 13.1259 25.0435Z" fill="#F53D47"/>
<path d="M19.3125 32.6836C19.8059 32.9584 19.5732 33.3819 19.5537 33.7504C19.5527 33.769 19.2967 33.7732 19.1594 33.784C19.1346 33.4312 19.1079 33.0786 19.0933 32.7253C19.0927 32.7127 19.2114 32.6948 19.3125 32.6836Z" fill="#F53D47"/>
<path d="M10.0635 22.4796C9.93473 22.2016 9.82528 21.9534 9.71582 21.7052C9.7941 21.6617 9.87237 21.6182 9.95065 21.5747C10.1412 21.8824 10.3402 22.1852 10.5129 22.5032C10.5387 22.5506 10.4406 22.6693 10.3998 22.755C10.2941 22.6731 10.1885 22.5912 10.0635 22.4796Z" fill="#F53D47"/>
<path d="M11.696 23.899C11.7712 24.0594 11.8216 24.1947 11.8721 24.3301C11.7336 24.305 11.5692 24.3195 11.4624 24.2458C11.2842 24.1228 11.1234 23.9582 10.9945 23.781C10.9332 23.6967 10.9624 23.5428 10.9507 23.4204C11.0666 23.4314 11.2109 23.402 11.2922 23.4624C11.4385 23.5711 11.547 23.7338 11.696 23.899Z" fill="#F53D47"/>
<path d="M9.64833 18.2266C9.78844 17.9233 9.92511 17.6538 10.0618 17.3843C10.098 17.3954 10.1342 17.4066 10.1704 17.4177C10.1866 17.5093 10.2029 17.6009 10.2251 17.7243C10.1461 17.9741 10.0834 18.2059 9.96723 18.4046C9.90753 18.5067 9.75255 18.5498 9.64062 18.6196C9.64205 18.4999 9.64347 18.3801 9.64833 18.2266Z" fill="#F53D47"/>
<path d="M10.6243 16.2006C10.8481 15.9562 11.0585 15.7429 11.269 15.5295C11.3001 15.5516 11.3312 15.5736 11.3623 15.5957C11.3505 15.688 11.3387 15.7803 11.323 15.9047C11.1734 16.1175 11.0445 16.3183 10.8747 16.4707C10.7874 16.549 10.6271 16.5411 10.4998 16.5722C10.5368 16.4587 10.5739 16.3451 10.6243 16.2006Z" fill="#F53D47"/>
<path d="M17.4455 39.4442C17.3284 39.0471 17.5371 38.6421 17.792 38.7338C17.9083 38.7757 18.081 39.0019 18.0578 39.0432C17.9529 39.2304 17.7915 39.3862 17.6375 39.5396C17.6184 39.5586 17.5222 39.4956 17.4455 39.4442Z" fill="#F53D47"/>
<path d="M9.36475 20.072C9.37638 19.8526 9.38831 19.6748 9.4052 19.4229C9.82314 20.0393 9.82022 20.5802 9.36505 20.7244C9.36505 20.5035 9.36505 20.3085 9.36475 20.072Z" fill="#F53D47"/>
<path d="M13.911 22.4472C13.9118 22.446 13.9077 22.474 13.9077 22.474C13.9077 22.474 13.8854 22.4569 13.8978 22.45C13.9103 22.443 13.9101 22.4483 13.911 22.4472Z" fill="#F53D47"/>
<path d="M13.0181 14.4308C12.9557 14.5111 12.8933 14.558 12.7891 14.6386C12.6925 14.7342 12.6376 14.7961 12.5489 14.8666C12.3508 14.9429 12.1866 15.0106 12.0225 15.0784C12.0225 15.0784 12.0097 15.0298 12.0375 14.9878C12.3155 14.7185 12.5657 14.491 12.8159 14.2636C12.8588 14.2651 12.9017 14.2666 12.9796 14.2635C13.0146 14.2588 13.0039 14.2648 13.0039 14.2648C13.0086 14.309 13.0134 14.3532 13.0181 14.4308Z" fill="#F53D47"/>
<path d="M14.563 13.2568C14.2957 13.4371 14.0595 13.5979 13.8233 13.7587C13.7875 13.7074 13.7516 13.6561 13.7158 13.6048C14.0094 13.412 14.3029 13.2192 14.5964 13.0264C14.5957 13.0967 14.5949 13.167 14.563 13.2568Z" fill="#F53D47"/>
<path d="M0 18.0684C0 35.1063 0.011022 35.5821 0.22044 36.4317C0.694387 38.3462 1.91783 39.9888 3.51602 40.8498C4.87173 41.5861 5.11421 41.6201 8.57512 41.6768L11.6944 41.7334L12.3447 41.0537C14.3066 38.9693 15.4198 36.0126 15.0891 33.7469C14.7364 31.232 13.6342 29.612 10.5811 27.0971C8.38775 25.2846 6.97693 23.6307 6.32663 22.1127C6.17233 21.7388 6.11722 21.3537 6.11722 20.5833C6.11722 19.6318 6.13926 19.5071 6.54707 18.6575C6.87773 17.9778 7.17533 17.5587 7.8146 16.9016C8.67432 16.0293 10.5701 14.6246 11.6723 14.0469C12.014 13.8656 12.4879 13.6164 12.7304 13.4918C14.1633 12.7328 17.9549 11.1242 18.3186 11.1242C18.528 11.1242 18.3847 11.4413 18.1092 11.5773C17.536 11.8832 15.9268 13.0386 15.1773 13.6957C13.524 15.1457 12.4328 16.9243 12.2785 18.3856C12.1463 19.7337 12.6643 21.1158 13.7444 22.2826C14.4388 23.0416 15.6513 24.0045 16.6763 24.5936C16.8967 24.7182 17.2715 24.9448 17.503 25.0694C17.7234 25.2053 18.043 25.4092 18.2084 25.5225C18.3627 25.6471 18.55 25.7377 18.6162 25.7377C18.6823 25.7377 18.7374 25.7831 18.7374 25.851C18.7374 25.9077 18.7815 25.9643 18.8366 25.9643C18.9248 25.9643 20.2695 26.9046 20.8316 27.3577C23.2785 29.3288 24.6011 30.8582 25.549 32.818C26.1883 34.1434 26.2875 34.6418 26.2875 36.3864C26.2875 38.1423 26.1662 38.6068 25.2294 40.4533C24.9318 41.0424 24.6893 41.5295 24.6893 41.5521C24.6893 41.6881 25.8246 41.5635 26.4969 41.3596C30.553 40.1361 34.576 34.9364 35.1712 30.1445C35.4909 27.6409 34.7304 24.4576 33.2534 22.09C32.2614 20.4814 30.4428 18.7595 28.9107 17.9438C28.4698 17.7173 28.1061 17.4907 28.1061 17.4454C28.1061 17.4114 28.3045 17.2188 28.536 17.0149C29.528 16.2106 30.5971 14.5113 31.1482 12.88C31.4017 12.1097 31.4568 11.7359 31.5009 10.3878C31.545 8.64324 31.3576 7.47642 30.8286 6.2303C29.8145 3.874 27.6212 1.81223 25.3506 1.09855C23.8186 0.611427 23.4107 0.600098 11.4408 0.588772H0V18.0684Z" fill="#F53D47"/>
<path d="M39.1974 9.37335C39.3137 9.41011 39.4301 9.43584 39.5464 9.45055C39.6628 9.4579 39.7791 9.46157 39.8955 9.46157C40.1864 9.46157 40.4664 9.42114 40.7354 9.34027C41.0045 9.2594 41.2554 9.14545 41.4881 8.99842C41.7281 8.84404 41.939 8.66024 42.1208 8.44705C42.3098 8.2265 42.4625 7.98389 42.5789 7.71923L44.7605 9.93576C44.4842 10.3327 44.1642 10.6893 43.8006 11.0054C43.4443 11.3215 43.0552 11.5899 42.6334 11.8104C42.2189 12.031 41.779 12.1964 41.3136 12.3067C40.8554 12.4243 40.3827 12.4831 39.8955 12.4831C39.0737 12.4831 38.2993 12.3287 37.572 12.0199C36.8521 11.7112 36.2194 11.2811 35.674 10.7297C35.1359 10.1784 34.7105 9.52406 34.3978 8.76684C34.0851 8.00227 33.9287 7.16418 33.9287 6.25258C33.9287 5.31892 34.0851 4.46613 34.3978 3.6942C34.7105 2.92228 35.1359 2.26431 35.674 1.72029C36.2194 1.17626 36.8521 0.753544 37.572 0.452127C38.2993 0.150709 39.0737 0 39.8955 0C40.3827 0 40.859 0.0588132 41.3245 0.17644C41.7899 0.294066 42.2298 0.463154 42.6444 0.683704C43.0661 0.904253 43.4588 1.17626 43.8224 1.49974C44.186 1.81586 44.506 2.17241 44.7824 2.5694L39.1974 9.37335ZM40.7245 3.16489C40.5863 3.11342 40.4482 3.08034 40.31 3.06564C40.1791 3.05094 40.0409 3.04358 39.8955 3.04358C39.4882 3.04358 39.1028 3.12078 38.7392 3.27516C38.3829 3.42219 38.0702 3.63539 37.8011 3.91475C37.5393 4.19412 37.3321 4.53229 37.1794 4.92928C37.0266 5.31892 36.9503 5.76002 36.9503 6.25258C36.9503 6.36285 36.9539 6.48783 36.9612 6.62751C36.9757 6.76719 36.9939 6.91055 37.0157 7.05758C37.0448 7.19727 37.0775 7.33327 37.1139 7.4656C37.1503 7.59793 37.1975 7.71556 37.2557 7.81848L40.7245 3.16489Z" fill="#F53D47"/>
<path d="M50.8473 9.37335C50.9637 9.41011 51.08 9.43584 51.1964 9.45055C51.3127 9.4579 51.4291 9.46157 51.5454 9.46157C51.8363 9.46157 52.1163 9.42114 52.3854 9.34027C52.6544 9.2594 52.9053 9.14545 53.138 8.99842C53.378 8.84404 53.5889 8.66024 53.7707 8.44705C53.9598 8.2265 54.1125 7.98389 54.2288 7.71923L56.4105 9.93576C56.1341 10.3327 55.8142 10.6893 55.4506 11.0054C55.0942 11.3215 54.7052 11.5899 54.2834 11.8104C53.8689 12.031 53.4289 12.1964 52.9635 12.3067C52.5054 12.4243 52.0327 12.4831 51.5454 12.4831C50.7237 12.4831 49.9492 12.3287 49.222 12.0199C48.502 11.7112 47.8694 11.2811 47.324 10.7297C46.7858 10.1784 46.3604 9.52406 46.0477 8.76684C45.735 8.00227 45.5787 7.16418 45.5787 6.25258C45.5787 5.31892 45.735 4.46613 46.0477 3.6942C46.3604 2.92228 46.7858 2.26431 47.324 1.72029C47.8694 1.17626 48.502 0.753544 49.222 0.452127C49.9492 0.150709 50.7237 0 51.5454 0C52.0327 0 52.509 0.0588132 52.9744 0.17644C53.4398 0.294066 53.8798 0.463154 54.2943 0.683704C54.7161 0.904253 55.1088 1.17626 55.4724 1.49974C55.836 1.81586 56.156 2.17241 56.4323 2.5694L50.8473 9.37335ZM52.3745 3.16489C52.2363 3.11342 52.0981 3.08034 51.9599 3.06564C51.829 3.05094 51.6909 3.04358 51.5454 3.04358C51.1382 3.04358 50.7528 3.12078 50.3892 3.27516C50.0328 3.42219 49.7201 3.63539 49.4511 3.91475C49.1893 4.19412 48.982 4.53229 48.8293 4.92928C48.6766 5.31892 48.6002 5.76002 48.6002 6.25258C48.6002 6.36285 48.6039 6.48783 48.6111 6.62751C48.6257 6.76719 48.6439 6.91055 48.6657 7.05758C48.6948 7.19727 48.7275 7.33327 48.7638 7.4656C48.8002 7.59793 48.8475 7.71556 48.9056 7.81848L52.3745 3.16489Z" fill="#F53D47"/>
<path d="M60.9374 16.7618H57.9376V0.452127H58.6576L59.8466 1.87467C60.1156 1.61736 60.4101 1.37476 60.7301 1.14686C61.0501 0.918956 61.381 0.724138 61.7228 0.562401C62.0718 0.393313 62.4318 0.260984 62.8027 0.165412C63.1736 0.0698407 63.5481 0.022055 63.9262 0.022055C64.748 0.022055 65.5188 0.172764 66.2388 0.474181C66.966 0.768247 67.5986 1.18729 68.1368 1.73131C68.6822 2.27534 69.1112 2.93331 69.4239 3.70523C69.7366 4.4698 69.893 5.31892 69.893 6.25258C69.893 7.223 69.7366 8.09784 69.4239 8.87712C69.1112 9.64904 68.6822 10.307 68.1368 10.851C67.5986 11.3877 66.966 11.7994 66.2388 12.0861C65.5188 12.3728 64.748 12.5162 63.9262 12.5162C63.6644 12.5162 63.4026 12.4868 63.1408 12.428C62.8863 12.3692 62.6318 12.292 62.3773 12.1964C62.13 12.0935 61.8828 11.9795 61.6355 11.8545C61.3955 11.7296 61.1628 11.6009 60.9374 11.4686V16.7618ZM66.9042 6.25258C66.9042 5.75267 66.8242 5.30422 66.6642 4.90723C66.5115 4.51024 66.3006 4.17574 66.0315 3.90373C65.7624 3.62436 65.4461 3.41117 65.0825 3.26413C64.7189 3.1171 64.3335 3.04358 63.9262 3.04358C63.519 3.04358 63.1336 3.1171 62.77 3.26413C62.4136 3.41117 62.1009 3.62436 61.8319 3.90373C61.5628 4.17574 61.3483 4.51024 61.1883 4.90723C61.0356 5.30422 60.9592 5.75267 60.9592 6.25258C60.9592 6.73044 61.0356 7.16786 61.1883 7.56485C61.3483 7.96184 61.5628 8.30001 61.8319 8.57938C62.1009 8.85874 62.4136 9.07561 62.77 9.23C63.1336 9.38438 63.519 9.46157 63.9262 9.46157C64.3335 9.46157 64.7189 9.38438 65.0825 9.23C65.4461 9.07561 65.7624 8.85874 66.0315 8.57938C66.3006 8.30001 66.5115 7.96184 66.6642 7.56485C66.8242 7.16786 66.9042 6.73044 66.9042 6.25258Z" fill="#F53D47"/>
<path d="M46.9296 32.6098C47.1118 32.6664 47.2941 32.7061 47.4763 32.7288C47.6585 32.7401 47.8407 32.7458 48.0229 32.7458C48.4784 32.7458 48.9169 32.6834 49.3383 32.5588C49.7596 32.4341 50.1525 32.2584 50.517 32.0317C50.8928 31.7937 51.2231 31.5104 51.5078 31.1817C51.8039 30.8417 52.043 30.4677 52.2252 30.0597L55.6418 33.4768C55.209 34.0888 54.7079 34.6385 54.1385 35.1259C53.5805 35.6132 52.9712 36.0269 52.3106 36.3669C51.6615 36.7069 50.9725 36.962 50.2437 37.132C49.5262 37.3133 48.7859 37.404 48.0229 37.404C46.736 37.404 45.5232 37.166 44.3843 36.6899C43.2569 36.2139 42.2661 35.5509 41.4119 34.7009C40.5692 33.8508 39.903 32.8421 39.4133 31.6747C38.9236 30.496 38.6787 29.204 38.6787 27.7986C38.6787 26.3592 38.9236 25.0445 39.4133 23.8544C39.903 22.6644 40.5692 21.65 41.4119 20.8113C42.2661 19.9726 43.2569 19.3209 44.3843 18.8562C45.5232 18.3915 46.736 18.1592 48.0229 18.1592C48.7859 18.1592 49.5319 18.2499 50.2607 18.4312C50.9896 18.6125 51.6786 18.8732 52.3277 19.2132C52.9883 19.5532 53.6032 19.9726 54.1727 20.4713C54.7421 20.9586 55.2432 21.5083 55.6759 22.1203L46.9296 32.6098ZM49.3212 23.0384C49.1048 22.959 48.8884 22.908 48.672 22.8854C48.4671 22.8627 48.2507 22.8514 48.0229 22.8514C47.3852 22.8514 46.7816 22.9704 46.2122 23.2084C45.6541 23.4351 45.1644 23.7637 44.743 24.1944C44.3331 24.6251 44.0085 25.1465 43.7693 25.7585C43.5302 26.3592 43.4106 27.0392 43.4106 27.7986C43.4106 27.9686 43.4163 28.1613 43.4277 28.3766C43.4505 28.5919 43.4789 28.813 43.5131 29.0396C43.5586 29.255 43.6099 29.4646 43.6668 29.6687C43.7238 29.8727 43.7978 30.054 43.8889 30.2127L49.3212 23.0384Z" fill="#F53D47"/>
<path d="M65.1739 32.6098C65.3561 32.6664 65.5383 32.7061 65.7205 32.7288C65.9027 32.7401 66.0849 32.7458 66.2672 32.7458C66.7227 32.7458 67.1611 32.6834 67.5825 32.5588C68.0039 32.4341 68.3968 32.2584 68.7612 32.0317C69.137 31.7937 69.4673 31.5104 69.752 31.1817C70.0481 30.8417 70.2873 30.4677 70.4695 30.0597L73.886 33.4768C73.4533 34.0888 72.9522 34.6385 72.3827 35.1259C71.8247 35.6132 71.2154 36.0269 70.5549 36.3669C69.9058 36.7069 69.2168 36.962 68.4879 37.132C67.7704 37.3133 67.0302 37.404 66.2672 37.404C64.9803 37.404 63.7674 37.166 62.6286 36.6899C61.5011 36.2139 60.5103 35.5509 59.6562 34.7009C58.8134 33.8508 58.1472 32.8421 57.6575 31.6747C57.1678 30.496 56.923 29.204 56.923 27.7986C56.923 26.3592 57.1678 25.0445 57.6575 23.8544C58.1472 22.6644 58.8134 21.65 59.6562 20.8113C60.5103 19.9726 61.5011 19.3209 62.6286 18.8562C63.7674 18.3915 64.9803 18.1592 66.2672 18.1592C67.0302 18.1592 67.7761 18.2499 68.505 18.4312C69.2338 18.6125 69.9228 18.8732 70.572 19.2132C71.2325 19.5532 71.8475 19.9726 72.4169 20.4713C72.9863 20.9586 73.4874 21.5083 73.9202 22.1203L65.1739 32.6098ZM67.5654 23.0384C67.3491 22.959 67.1327 22.908 66.9163 22.8854C66.7113 22.8627 66.4949 22.8514 66.2672 22.8514C65.6294 22.8514 65.0258 22.9704 64.4564 23.2084C63.8984 23.4351 63.4087 23.7637 62.9873 24.1944C62.5773 24.6251 62.2527 25.1465 62.0136 25.7585C61.7744 26.3592 61.6548 27.0392 61.6548 27.7986C61.6548 27.9686 61.6605 28.1613 61.6719 28.3766C61.6947 28.5919 61.7232 28.813 61.7573 29.0396C61.8029 29.255 61.8541 29.4646 61.9111 29.6687C61.968 29.8727 62.0421 30.054 62.1332 30.2127L67.5654 23.0384Z" fill="#F53D47"/>
<path d="M80.9753 44.0002H76.2776V18.8562H77.405L79.267 21.0493C79.6884 20.6526 80.1496 20.2786 80.6507 19.9273C81.1518 19.5759 81.67 19.2756 82.2053 19.0262C82.7519 18.7655 83.3156 18.5615 83.8964 18.4142C84.4772 18.2669 85.0637 18.1932 85.6559 18.1932C86.9428 18.1932 88.15 18.4255 89.2775 18.8902C90.4163 19.3436 91.4071 19.9896 92.2498 20.8283C93.104 21.667 93.7759 22.6814 94.2656 23.8714C94.7553 25.0501 95.0001 26.3592 95.0001 27.7986C95.0001 29.2946 94.7553 30.6434 94.2656 31.8447C93.7759 33.0348 93.104 34.0492 92.2498 34.8879C91.4071 35.7152 90.4163 36.3499 89.2775 36.7919C88.15 37.234 86.9428 37.455 85.6559 37.455C85.246 37.455 84.836 37.4096 84.426 37.319C84.0274 37.2283 83.6288 37.1093 83.2302 36.962C82.843 36.8033 82.4558 36.6276 82.0686 36.4349C81.6928 36.2423 81.3283 36.0439 80.9753 35.8399V44.0002ZM90.3195 27.7986C90.3195 27.0279 90.1942 26.3365 89.9437 25.7245C89.7045 25.1125 89.3743 24.5968 88.9529 24.1774C88.5315 23.7467 88.0361 23.4181 87.4667 23.1914C86.8973 22.9647 86.2937 22.8514 85.6559 22.8514C85.0182 22.8514 84.4146 22.9647 83.8452 23.1914C83.2872 23.4181 82.7975 23.7467 82.3761 24.1774C81.9547 24.5968 81.6187 25.1125 81.3682 25.7245C81.129 26.3365 81.0095 27.0279 81.0095 27.7986C81.0095 28.5353 81.129 29.2096 81.3682 29.8217C81.6187 30.4337 81.9547 30.955 82.3761 31.3857C82.7975 31.8164 83.2872 32.1508 83.8452 32.3888C84.4146 32.6268 85.0182 32.7458 85.6559 32.7458C86.2937 32.7458 86.8973 32.6268 87.4667 32.3888C88.0361 32.1508 88.5315 31.8164 88.9529 31.3857C89.3743 30.955 89.7045 30.4337 89.9437 29.8217C90.1942 29.2096 90.3195 28.5353 90.3195 27.7986Z" fill="#F53D47"/>
</svg>
