<svg width="36" height="42" viewBox="0 0 36 42" fill="none" xmlns="http://www.w3.org/2000/svg">
<path d="M18.2923 37.3643C18.3573 37.2239 18.3783 37.0827 18.4578 37.0202C18.5562 36.9427 18.7127 36.8831 18.8256 36.9073C18.8973 36.9227 18.9961 37.1185 18.9764 37.2091C18.9267 37.4384 18.8497 37.6777 18.7198 37.8665C18.6361 37.9882 18.4396 38.0278 18.2937 38.1042C18.257 37.9478 18.2056 37.7928 18.1901 37.6342C18.1827 37.5593 18.244 37.4773 18.2923 37.3643Z" fill="#F53D47"/>
<path d="M18.9665 30.7428C19.0694 30.9775 19.1829 31.1766 19.2279 31.391C19.2532 31.5112 19.1652 31.6566 19.1282 31.7907C19.0029 31.7366 18.833 31.7172 18.7623 31.6207C18.6444 31.46 18.5705 31.2556 18.5157 31.0586C18.4794 30.928 18.5088 30.778 18.5088 30.6367C18.6554 30.6624 18.802 30.688 18.9665 30.7428Z" fill="#F53D47"/>
<path d="M16.4339 27.3542C16.6109 27.5074 16.7896 27.6223 16.8964 27.7867C16.9543 27.876 16.9138 28.0598 16.8657 28.1786C16.8516 28.2132 16.6112 28.2167 16.555 28.1558C16.3012 27.8808 15.8171 27.7097 16.0444 27.1099C16.193 27.2031 16.2993 27.2698 16.4339 27.3542Z" fill="#F53D47"/>
<path d="M18.2748 29.51C18.2258 29.6789 18.1616 29.82 18.0503 30.0643C17.7911 29.6788 17.603 29.4429 17.4695 29.1779C17.4183 29.0763 17.4918 28.9083 17.5085 28.7705C17.6436 28.8207 17.8158 28.8339 17.9053 28.9294C18.0517 29.0855 18.1443 29.2951 18.2748 29.51Z" fill="#F53D47"/>
<path d="M14.5656 25.9683C14.8622 26.1695 15.1302 26.3514 15.3982 26.5333C15.3906 26.5919 15.3829 26.6505 15.3753 26.7092C15.2148 26.726 15.0163 26.812 14.9016 26.7453C14.6565 26.6029 14.4548 26.3814 14.2354 26.1923C14.3359 26.1112 14.4364 26.0301 14.5656 25.9683Z" fill="#F53D47"/>
<path d="M18.8857 35.8847C18.9187 35.6129 18.9748 35.3821 19.0156 35.1486C19.0776 34.7938 19.2633 34.7427 19.5684 34.9051C19.5283 35.1705 19.4864 35.435 19.449 35.7001C19.3922 36.1026 19.1932 36.1308 18.8857 35.8847Z" fill="#F53D47"/>
<path d="M13.1259 25.0435C13.2871 25.2507 13.559 25.5737 13.5235 25.6147C13.2468 25.9343 13.0888 25.5419 12.8772 25.4398C12.7898 25.3976 12.6848 25.3441 12.6427 25.2648C12.5843 25.1548 12.5776 25.0158 12.5488 24.8892C12.6738 24.9016 12.8006 24.9051 12.9231 24.9302C12.9841 24.9426 13.0374 24.9945 13.1259 25.0435Z" fill="#F53D47"/>
<path d="M19.3125 32.6836C19.8059 32.9584 19.5732 33.3819 19.5537 33.7504C19.5527 33.769 19.2967 33.7732 19.1594 33.784C19.1346 33.4312 19.1079 33.0786 19.0933 32.7253C19.0927 32.7127 19.2114 32.6948 19.3125 32.6836Z" fill="#F53D47"/>
<path d="M10.0635 22.4796C9.93473 22.2016 9.82528 21.9534 9.71582 21.7052C9.7941 21.6617 9.87237 21.6182 9.95065 21.5747C10.1412 21.8824 10.3402 22.1852 10.5129 22.5032C10.5387 22.5506 10.4406 22.6693 10.3998 22.755C10.2941 22.6731 10.1885 22.5912 10.0635 22.4796Z" fill="#F53D47"/>
<path d="M11.696 23.899C11.7712 24.0594 11.8216 24.1947 11.8721 24.3301C11.7336 24.305 11.5692 24.3195 11.4624 24.2458C11.2842 24.1228 11.1234 23.9582 10.9945 23.781C10.9332 23.6967 10.9624 23.5428 10.9507 23.4204C11.0666 23.4314 11.2109 23.402 11.2922 23.4624C11.4385 23.5711 11.547 23.7338 11.696 23.899Z" fill="#F53D47"/>
<path d="M9.64833 18.2266C9.78844 17.9233 9.92511 17.6538 10.0618 17.3843C10.098 17.3954 10.1342 17.4066 10.1704 17.4177C10.1866 17.5093 10.2029 17.6009 10.2251 17.7243C10.1461 17.9741 10.0834 18.2059 9.96723 18.4046C9.90753 18.5067 9.75255 18.5498 9.64062 18.6196C9.64205 18.4999 9.64347 18.3801 9.64833 18.2266Z" fill="#F53D47"/>
<path d="M10.6243 16.2006C10.8481 15.9562 11.0585 15.7429 11.269 15.5295C11.3001 15.5516 11.3312 15.5736 11.3623 15.5957C11.3505 15.688 11.3387 15.7803 11.323 15.9047C11.1734 16.1175 11.0445 16.3183 10.8747 16.4707C10.7874 16.549 10.6271 16.5411 10.4998 16.5722C10.5368 16.4587 10.5739 16.3451 10.6243 16.2006Z" fill="#F53D47"/>
<path d="M17.4455 39.4442C17.3284 39.0471 17.5371 38.6421 17.792 38.7338C17.9083 38.7757 18.081 39.0019 18.0578 39.0432C17.9529 39.2304 17.7915 39.3862 17.6375 39.5396C17.6184 39.5586 17.5222 39.4956 17.4455 39.4442Z" fill="#F53D47"/>
<path d="M9.36475 20.072C9.37638 19.8526 9.38831 19.6748 9.4052 19.4229C9.82314 20.0393 9.82022 20.5802 9.36505 20.7244C9.36505 20.5035 9.36505 20.3085 9.36475 20.072Z" fill="#F53D47"/>
<path d="M13.911 22.4472C13.9118 22.446 13.9077 22.474 13.9077 22.474C13.9077 22.474 13.8854 22.4569 13.8978 22.45C13.9103 22.443 13.9101 22.4483 13.911 22.4472Z" fill="#F53D47"/>
<path d="M13.0181 14.4308C12.9557 14.5111 12.8933 14.558 12.7891 14.6386C12.6925 14.7342 12.6376 14.7961 12.5489 14.8666C12.3508 14.9429 12.1866 15.0106 12.0225 15.0784C12.0225 15.0784 12.0097 15.0298 12.0375 14.9878C12.3155 14.7185 12.5657 14.491 12.8159 14.2636C12.8588 14.2651 12.9017 14.2666 12.9796 14.2635C13.0146 14.2588 13.0039 14.2648 13.0039 14.2648C13.0086 14.309 13.0134 14.3532 13.0181 14.4308Z" fill="#F53D47"/>
<path d="M14.563 13.2568C14.2957 13.4371 14.0595 13.5979 13.8233 13.7587C13.7875 13.7074 13.7516 13.6561 13.7158 13.6048C14.0094 13.412 14.3029 13.2192 14.5964 13.0264C14.5957 13.0967 14.5949 13.167 14.563 13.2568Z" fill="#F53D47"/>
<path d="M0 18.0684C0 35.1063 0.011022 35.5821 0.22044 36.4317C0.694387 38.3462 1.91783 39.9888 3.51602 40.8498C4.87173 41.5861 5.11421 41.6201 8.57512 41.6768L11.6944 41.7334L12.3447 41.0537C14.3066 38.9693 15.4198 36.0126 15.0891 33.7469C14.7364 31.232 13.6342 29.612 10.5811 27.0971C8.38775 25.2846 6.97693 23.6307 6.32663 22.1127C6.17233 21.7388 6.11722 21.3537 6.11722 20.5833C6.11722 19.6318 6.13926 19.5071 6.54707 18.6575C6.87773 17.9778 7.17533 17.5587 7.8146 16.9016C8.67432 16.0293 10.5701 14.6246 11.6723 14.0469C12.014 13.8656 12.4879 13.6164 12.7304 13.4918C14.1633 12.7328 17.9549 11.1242 18.3186 11.1242C18.528 11.1242 18.3847 11.4413 18.1092 11.5773C17.536 11.8832 15.9268 13.0386 15.1773 13.6957C13.524 15.1457 12.4328 16.9243 12.2785 18.3856C12.1463 19.7337 12.6643 21.1158 13.7444 22.2826C14.4388 23.0416 15.6513 24.0045 16.6763 24.5936C16.8967 24.7182 17.2715 24.9448 17.503 25.0694C17.7234 25.2053 18.043 25.4092 18.2084 25.5225C18.3627 25.6471 18.55 25.7377 18.6162 25.7377C18.6823 25.7377 18.7374 25.7831 18.7374 25.851C18.7374 25.9077 18.7815 25.9643 18.8366 25.9643C18.9248 25.9643 20.2695 26.9046 20.8316 27.3577C23.2785 29.3288 24.6011 30.8582 25.549 32.818C26.1883 34.1434 26.2875 34.6418 26.2875 36.3864C26.2875 38.1423 26.1662 38.6068 25.2294 40.4533C24.9318 41.0424 24.6893 41.5295 24.6893 41.5521C24.6893 41.6881 25.8246 41.5635 26.4969 41.3596C30.553 40.1361 34.576 34.9364 35.1712 30.1445C35.4909 27.6409 34.7304 24.4576 33.2534 22.09C32.2614 20.4814 30.4428 18.7595 28.9107 17.9438C28.4698 17.7173 28.1061 17.4907 28.1061 17.4454C28.1061 17.4114 28.3045 17.2188 28.536 17.0149C29.528 16.2106 30.5971 14.5113 31.1482 12.88C31.4017 12.1097 31.4568 11.7359 31.5009 10.3878C31.545 8.64324 31.3576 7.47642 30.8286 6.2303C29.8145 3.874 27.6212 1.81223 25.3506 1.09855C23.8186 0.611427 23.4107 0.600098 11.4408 0.588772H0V18.0684Z" fill="#F53D47"/>
</svg>
