<svg width="16" height="16" viewBox="0 0 16 16" fill="none" xmlns="http://www.w3.org/2000/svg">
    <path fill-rule="evenodd" clip-rule="evenodd"
          d="M6.87283 1.50001H9.12712C9.27138 1.49992 9.39707 1.49984 9.51575 1.51879C9.98461 1.59366 10.3903 1.8861 10.6096 2.30723C10.6651 2.41382 10.7048 2.53307 10.7503 2.66996L10.8248 2.89323C10.8374 2.93102 10.841 2.94172 10.844 2.95014C10.9608 3.27289 11.2634 3.49106 11.6065 3.49976C11.6156 3.49999 11.6266 3.50003 11.6666 3.50003H13.6666C13.9428 3.50003 14.1666 3.72388 14.1666 4.00003C14.1666 4.27617 13.9428 4.50003 13.6666 4.50003H2.33325C2.05711 4.50003 1.83325 4.27617 1.83325 4.00003C1.83325 3.72388 2.05711 3.50003 2.33325 3.50003H4.33331C4.37334 3.50003 4.38439 3.49999 4.39341 3.49976C4.73651 3.49106 5.03919 3.2729 5.15593 2.95016C5.159 2.94168 5.16253 2.93121 5.17519 2.89323L5.2496 2.66998C5.29513 2.5331 5.3348 2.41382 5.39031 2.30723C5.60961 1.8861 6.01534 1.59366 6.4842 1.51879C6.60288 1.49984 6.72857 1.49992 6.87283 1.50001ZM6.00535 3.50003C6.03969 3.43268 6.07012 3.36269 6.0963 3.29032C6.10425 3.26834 6.11205 3.24495 6.12207 3.21489L6.1886 3.01528C6.24938 2.83294 6.26338 2.79575 6.27726 2.76909C6.35036 2.62872 6.4856 2.53124 6.64189 2.50628C6.67157 2.50154 6.71127 2.50003 6.90348 2.50003H9.09647C9.28868 2.50003 9.32837 2.50154 9.35806 2.50628C9.51435 2.53124 9.64959 2.62872 9.72269 2.76909C9.73657 2.79575 9.75057 2.83294 9.81135 3.01528L9.87784 3.21477L9.90365 3.29033C9.92983 3.3627 9.96026 3.43268 9.9946 3.50003H6.00535Z"
          fill="white"/>
    <path d="M3.94331 5.63343C3.92494 5.3579 3.68669 5.14943 3.41116 5.1678C3.13563 5.18617 2.92716 5.42442 2.94553 5.69995L3.25449 10.3344C3.31149 11.1896 3.35753 11.8804 3.46551 12.4224C3.57778 12.986 3.76872 13.4567 4.16312 13.8256C4.55752 14.1946 5.03988 14.3538 5.60965 14.4284C6.15767 14.5 6.84995 14.5 7.70699 14.5H8.29292C9.14996 14.5 9.84228 14.5 10.3903 14.4284C10.9601 14.3538 11.4424 14.1946 11.8368 13.8256C12.2312 13.4567 12.4222 12.986 12.5344 12.4224C12.6424 11.8804 12.6885 11.1896 12.7455 10.3345L13.0544 5.69995C13.0728 5.42442 12.8643 5.18617 12.5888 5.1678C12.3133 5.14943 12.075 5.3579 12.0566 5.63343L11.75 10.2328C11.6901 11.1314 11.6474 11.7566 11.5537 12.227C11.4628 12.6833 11.3359 12.9249 11.1536 13.0954C10.9714 13.2659 10.7219 13.3765 10.2606 13.4368C9.78499 13.499 9.15832 13.5 8.25776 13.5H7.74219C6.84163 13.5 6.21496 13.499 5.73935 13.4368C5.27802 13.3765 5.02858 13.2659 4.8463 13.0954C4.66403 12.9249 4.53714 12.6833 4.44624 12.227C4.35253 11.7566 4.30984 11.1314 4.24994 10.2328L3.94331 5.63343Z"
          fill="white"/>
    <path d="M6.28356 6.83584C6.55833 6.80836 6.80335 7.00883 6.83083 7.28361L7.16417 10.6169C7.19164 10.8917 6.99117 11.1367 6.7164 11.1642C6.44163 11.1917 6.19661 10.9912 6.16913 10.7164L5.83579 7.38311C5.80832 7.10834 6.00879 6.86332 6.28356 6.83584Z"
          fill="white"/>
    <path d="M9.7164 6.83584C9.99117 6.86332 10.1916 7.10834 10.1642 7.38311L9.83083 10.7164C9.80335 10.9912 9.55833 11.1917 9.28356 11.1642C9.00879 11.1367 8.80832 10.8917 8.83579 10.6169L9.16913 7.28361C9.19661 7.00883 9.44163 6.80836 9.7164 6.83584Z"
          fill="white"/>
</svg>
