<svg width="14" height="14" viewBox="0 0 14 14" fill="none" xmlns="http://www.w3.org/2000/svg">
<path fill-rule="evenodd" clip-rule="evenodd" d="M5.87283 0.500013H8.12712C8.27138 0.499921 8.39707 0.49984 8.51575 0.518792C8.98461 0.593662 9.39034 0.886098 9.60964 1.30723C9.66515 1.41382 9.70481 1.53307 9.75035 1.66996L9.82476 1.89323C9.83735 1.93102 9.84096 1.94172 9.84401 1.95014C9.96076 2.27289 10.2634 2.49106 10.6065 2.49976C10.6156 2.49999 10.6266 2.50003 10.6666 2.50003H12.6666C12.9428 2.50003 13.1666 2.72388 13.1666 3.00003C13.1666 3.27617 12.9428 3.50003 12.6666 3.50003H1.33325C1.05711 3.50003 0.833252 3.27617 0.833252 3.00003C0.833252 2.72388 1.05711 2.50003 1.33325 2.50003H3.33331C3.37334 2.50003 3.38439 2.49999 3.39341 2.49976C3.73651 2.49106 4.03919 2.2729 4.15593 1.95016C4.159 1.94168 4.16253 1.93121 4.17519 1.89323L4.2496 1.66998C4.29513 1.5331 4.3348 1.41382 4.39031 1.30723C4.60961 0.886099 5.01534 0.593662 5.4842 0.518792C5.60288 0.49984 5.72857 0.499921 5.87283 0.500013ZM5.00535 2.50003C5.03969 2.43268 5.07012 2.36269 5.0963 2.29032C5.10425 2.26834 5.11205 2.24495 5.12207 2.21489L5.1886 2.01528C5.24938 1.83294 5.26338 1.79575 5.27726 1.76909C5.35036 1.62872 5.4856 1.53124 5.64189 1.50628C5.67157 1.50154 5.71127 1.50003 5.90348 1.50003H8.09647C8.28868 1.50003 8.32837 1.50154 8.35806 1.50628C8.51435 1.53124 8.64959 1.62872 8.72269 1.76909C8.73657 1.79575 8.75057 1.83294 8.81135 2.01528L8.87784 2.21477L8.90365 2.29033C8.92983 2.3627 8.96026 2.43268 8.9946 2.50003H5.00535Z" fill="#1F0000" fill-opacity="0.6"/>
<path d="M2.94331 4.63343C2.92494 4.3579 2.68669 4.14943 2.41116 4.1678C2.13563 4.18617 1.92716 4.42442 1.94553 4.69995L2.25449 9.33444C2.31149 10.1896 2.35753 10.8804 2.46551 11.4224C2.57778 11.986 2.76872 12.4567 3.16312 12.8256C3.55752 13.1946 4.03988 13.3538 4.60965 13.4284C5.15767 13.5 5.84995 13.5 6.70699 13.5H7.29292C8.14996 13.5 8.84228 13.5 9.3903 13.4284C9.96007 13.3538 10.4424 13.1946 10.8368 12.8256C11.2312 12.4567 11.4222 11.986 11.5344 11.4224C11.6424 10.8804 11.6885 10.1896 11.7455 9.33445L12.0544 4.69995C12.0728 4.42442 11.8643 4.18617 11.5888 4.1678C11.3133 4.14943 11.075 4.3579 11.0566 4.63343L10.75 9.23284C10.6901 10.1314 10.6474 10.7566 10.5537 11.227C10.4628 11.6833 10.3359 11.9249 10.1536 12.0954C9.97137 12.2659 9.72193 12.3765 9.2606 12.4368C8.78499 12.499 8.15832 12.5 7.25776 12.5H6.74219C5.84163 12.5 5.21496 12.499 4.73935 12.4368C4.27802 12.3765 4.02858 12.2659 3.8463 12.0954C3.66403 11.9249 3.53714 11.6833 3.44624 11.227C3.35253 10.7566 3.30984 10.1314 3.24994 9.23284L2.94331 4.63343Z" fill="#1F0000" fill-opacity="0.6"/>
<path d="M5.28356 5.83584C5.55833 5.80836 5.80335 6.00883 5.83083 6.28361L6.16417 9.61694C6.19164 9.89171 5.99117 10.1367 5.7164 10.1642C5.44163 10.1917 5.19661 9.99122 5.16913 9.71644L4.83579 6.38311C4.80832 6.10834 5.00879 5.86332 5.28356 5.83584Z" fill="#1F0000" fill-opacity="0.6"/>
<path d="M8.7164 5.83584C8.99117 5.86332 9.19164 6.10834 9.16417 6.38311L8.83083 9.71644C8.80335 9.99122 8.55833 10.1917 8.28356 10.1642C8.00879 10.1367 7.80832 9.89171 7.83579 9.61694L8.16913 6.28361C8.19661 6.00883 8.44163 5.80836 8.7164 5.83584Z" fill="#1F0000" fill-opacity="0.6"/>
</svg>
