<svg width="16" height="16" viewBox="0 0 16 16" fill="none" xmlns="http://www.w3.org/2000/svg">
<g clip-path="url(#clip0_1680_10356)">
<path fill-rule="evenodd" clip-rule="evenodd" d="M8.00001 0.833496C4.04197 0.833496 0.833344 4.04212 0.833344 8.00016C0.833344 11.9582 4.04197 15.1668 8.00001 15.1668C11.9581 15.1668 15.1667 11.9582 15.1667 8.00016C15.1667 4.04212 11.9581 0.833496 8.00001 0.833496ZM1.83334 8.00016C1.83334 4.59441 4.59425 1.8335 8.00001 1.8335C9.52301 1.8335 10.9171 2.38561 11.9929 3.3006C11.9885 3.30473 11.9841 3.30896 11.9798 3.31328L3.31314 11.9798C3.30879 11.9841 3.30454 11.9885 3.30039 11.993C2.38543 10.9172 1.83334 9.52313 1.83334 8.00016ZM4.00701 12.6997C5.08289 13.6147 6.47697 14.1668 8.00001 14.1668C11.4058 14.1668 14.1667 11.4059 14.1667 8.00016C14.1667 6.47716 13.6146 5.08311 12.6996 4.00724C12.6954 4.01168 12.6912 4.01607 12.6869 4.02039L4.02024 12.6869C4.01589 12.6912 4.01148 12.6955 4.00701 12.6997Z" fill="#1F0000" fill-opacity="0.6"/>
</g>
<defs>
<clipPath id="clip0_1680_10356">
<rect width="16" height="16" fill="white"/>
</clipPath>
</defs>
</svg>
