<svg width="8" height="16" viewBox="0 0 8 16" fill="none" xmlns="http://www.w3.org/2000/svg">
<path d="M4.76562 0.28125V2.66406H3.59375V0.28125H4.76562ZM4.625 13.0391V15.125H3.46094V13.0391H4.625ZM6.1875 10.5703C6.1875 10.2578 6.11719 9.97656 5.97656 9.72656C5.83594 9.47656 5.60417 9.2474 5.28125 9.03906C4.95833 8.83073 4.52604 8.63802 3.98438 8.46094C3.32812 8.25781 2.76042 8.01042 2.28125 7.71875C1.80729 7.42708 1.4401 7.0651 1.17969 6.63281C0.924479 6.20052 0.796875 5.67708 0.796875 5.0625C0.796875 4.42188 0.934896 3.86979 1.21094 3.40625C1.48698 2.94271 1.8776 2.58594 2.38281 2.33594C2.88802 2.08594 3.48177 1.96094 4.16406 1.96094C4.69531 1.96094 5.16927 2.04167 5.58594 2.20312C6.0026 2.35938 6.35417 2.59375 6.64062 2.90625C6.93229 3.21875 7.15365 3.60156 7.30469 4.05469C7.46094 4.50781 7.53906 5.03125 7.53906 5.625H6.10156C6.10156 5.27604 6.0599 4.95573 5.97656 4.66406C5.89323 4.3724 5.76823 4.11979 5.60156 3.90625C5.4349 3.6875 5.23177 3.52083 4.99219 3.40625C4.7526 3.28646 4.47656 3.22656 4.16406 3.22656C3.72656 3.22656 3.36458 3.30208 3.07812 3.45312C2.79688 3.60417 2.58854 3.81771 2.45312 4.09375C2.31771 4.36458 2.25 4.67969 2.25 5.03906C2.25 5.3724 2.31771 5.66406 2.45312 5.91406C2.58854 6.16406 2.81771 6.39062 3.14062 6.59375C3.46875 6.79167 3.91927 6.98698 4.49219 7.17969C5.16406 7.39323 5.73438 7.64583 6.20312 7.9375C6.67188 8.22396 7.02865 8.57812 7.27344 9C7.51823 9.41667 7.64062 9.9349 7.64062 10.5547C7.64062 11.2266 7.48958 11.7943 7.1875 12.2578C6.88542 12.7161 6.46094 13.0651 5.91406 13.3047C5.36719 13.5443 4.72656 13.6641 3.99219 13.6641C3.54948 13.6641 3.11198 13.6042 2.67969 13.4844C2.2474 13.3646 1.85677 13.1693 1.50781 12.8984C1.15885 12.6224 0.880208 12.2604 0.671875 11.8125C0.463542 11.3594 0.359375 10.8047 0.359375 10.1484H1.8125C1.8125 10.5911 1.875 10.9583 2 11.25C2.13021 11.5365 2.30208 11.7656 2.51562 11.9375C2.72917 12.1042 2.96354 12.224 3.21875 12.2969C3.47917 12.3646 3.73698 12.3984 3.99219 12.3984C4.46094 12.3984 4.85677 12.3255 5.17969 12.1797C5.50781 12.0286 5.75781 11.8151 5.92969 11.5391C6.10156 11.263 6.1875 10.9401 6.1875 10.5703Z" fill="#41BE88"/>
</svg>
