<svg fill="none" height="32" viewBox="0 0 32 32" width="32" xmlns="http://www.w3.org/2000/svg">
    <path
        d="M10.9712 6.93672C9.20935 7.25434 8.57392 7.53667 8.16956 8.17191C7.47637 9.19536 7.47637 10.0423 8.14068 11.0658C8.68945 11.8422 8.74722 11.8422 11.1156 11.454C12.4442 11.207 14.6394 11.0305 15.9969 11.0305C17.3544 11.0305 19.5495 11.207 20.8781 11.454C23.2465 11.8422 23.3043 11.8422 23.853 11.0658C24.5462 9.97176 24.5174 9.05419 23.7086 8.06604C22.4955 6.6191 15.9391 6.01915 10.9712 6.93672Z"
        fill="white" fill-opacity="0.87"/>
    <path
        d="M11.6645 12.1247C10.7981 12.3011 10.0182 12.5834 9.90268 12.7246C9.7005 12.9716 8.77625 21.5474 8.77625 22.9943C8.77625 23.4178 9.09396 24.1589 9.49832 24.6177C10.1915 25.5 10.2204 25.5 15.997 25.5C21.7736 25.5 21.8025 25.5 22.4957 24.6177C23.3622 23.5943 23.3622 23.1355 22.6979 17.0654C22.2069 12.654 22.2069 12.654 21.3404 12.3717C20.0117 11.9129 13.4264 11.7364 11.6645 12.1247Z"
        fill="white" fill-opacity="0.87"/>
    <path
        d="M7.64975 13.0775C6.84102 13.8892 6.11895 20.171 6.72549 21.0533C7.18762 21.7238 8.19852 21.7944 8.19852 21.1592C8.19852 20.9474 8.4007 19.1476 8.63177 17.2066C8.86283 15.2656 9.06501 13.501 9.06501 13.2893C9.06501 12.5834 8.25629 12.4423 7.64975 13.0775Z"
        fill="white" fill-opacity="0.87"/>
    <path
        d="M22.9287 13.2187C22.9287 13.4657 23.1309 15.2656 23.362 17.2066C23.593 19.1476 23.7952 20.9474 23.7952 21.1592C23.7952 21.7944 24.8061 21.7238 25.2682 21.0533C25.5571 20.5945 25.5859 19.8887 25.2971 17.1007C25.0949 15.2656 24.8061 13.5363 24.6328 13.254C24.2284 12.654 22.9287 12.654 22.9287 13.2187Z"
        fill="white" fill-opacity="0.87"/>
</svg>
