<svg width="14" height="14" viewBox="0 0 14 14" fill="none" xmlns="http://www.w3.org/2000/svg">
<path d="M5.10203 2.60575C5.94646 1.09091 6.36868 0.333496 6.99992 0.333496C7.63116 0.333496 8.05338 1.09091 8.89781 2.60575L9.11627 2.99765C9.35624 3.42812 9.47622 3.64335 9.66329 3.78537C9.85036 3.92738 10.0834 3.9801 10.5493 4.08553L10.9736 4.18152C12.6133 4.55253 13.4332 4.73804 13.6283 5.36532C13.8234 5.99259 13.2644 6.64621 12.1465 7.95345L11.8573 8.29164C11.5396 8.66312 11.3808 8.84886 11.3093 9.07864C11.2379 9.30842 11.2619 9.55624 11.3099 10.0519L11.3537 10.5031C11.5227 12.2472 11.6072 13.1193 11.0965 13.507C10.5858 13.8947 9.81814 13.5412 8.2828 12.8343L7.8856 12.6514C7.4493 12.4505 7.23115 12.3501 6.99992 12.3501C6.76868 12.3501 6.55054 12.4505 6.11424 12.6514L5.71703 12.8343C4.1817 13.5412 3.41404 13.8947 2.90335 13.507C2.39267 13.1193 2.47717 12.2472 2.64618 10.5031L2.68991 10.0519C2.73794 9.55624 2.76195 9.30842 2.69049 9.07864C2.61904 8.84886 2.4602 8.66312 2.14253 8.29164L1.85332 7.95345C0.735418 6.64621 0.176468 5.99259 0.371533 5.36532C0.566597 4.73804 1.38649 4.55253 3.02628 4.18152L3.45051 4.08553C3.91649 3.9801 4.14947 3.92738 4.33655 3.78537C4.52362 3.64335 4.6436 3.42812 4.88356 2.99765L5.10203 2.60575Z" fill="url(#paint0_linear_2066_1000)"/>
<defs>
<linearGradient id="paint0_linear_2066_1000" x1="-2.50024" y1="14.0005" x2="8.49976" y2="14.0005" gradientUnits="userSpaceOnUse">
<stop offset="0.859375" stop-color="#F2BD00"/>
<stop offset="0.859475" stop-color="#1F0000" stop-opacity="0.25"/>
</linearGradient>
</defs>
</svg>
