<svg width="22" height="22" viewBox="0 0 22 22" fill="none" xmlns="http://www.w3.org/2000/svg">
<path fill-rule="evenodd" clip-rule="evenodd" d="M5.448 0.750001C4.54954 0.749973 3.8003 0.749949 3.20552 0.829914C2.57773 0.914319 2.01093 1.09999 1.55546 1.55546C1.09999 2.01093 0.914319 2.57773 0.829914 3.20552C0.749949 3.8003 0.749973 4.54951 0.750001 5.44798V5.552C0.749973 6.45047 0.749949 7.19971 0.829914 7.79448C0.914319 8.42228 1.09999 8.98908 1.55546 9.44455C2.01093 9.90002 2.57773 10.0857 3.20552 10.1701C3.8003 10.2501 4.54951 10.25 5.44798 10.25H5.552C6.45047 10.25 7.19971 10.2501 7.79448 10.1701C8.42228 10.0857 8.98908 9.90002 9.44455 9.44455C9.90002 8.98908 10.0857 8.42228 10.1701 7.79448C10.2501 7.19971 10.25 6.4505 10.25 5.55203V5.44801C10.25 4.54954 10.2501 3.8003 10.1701 3.20552C10.0857 2.57773 9.90002 2.01093 9.44455 1.55546C8.98908 1.09999 8.42228 0.914319 7.79448 0.829914C7.19971 0.749949 6.4505 0.749973 5.55203 0.750001H5.448ZM2.61612 2.61612C2.74644 2.4858 2.94393 2.37858 3.4054 2.31654C3.88843 2.2516 4.53599 2.25 5.5 2.25C6.46401 2.25 7.11157 2.2516 7.59461 2.31654C8.05607 2.37858 8.25357 2.4858 8.38389 2.61612C8.5142 2.74644 8.62143 2.94393 8.68347 3.4054C8.74841 3.88843 8.75 4.53599 8.75 5.5C8.75 6.46401 8.74841 7.11157 8.68347 7.59461C8.62143 8.05607 8.5142 8.25357 8.38389 8.38389C8.25357 8.5142 8.05607 8.62143 7.59461 8.68347C7.11157 8.74841 6.46401 8.75 5.5 8.75C4.53599 8.75 3.88843 8.74841 3.4054 8.68347C2.94393 8.62143 2.74644 8.5142 2.61612 8.38389C2.4858 8.25357 2.37858 8.05607 2.31654 7.59461C2.2516 7.11157 2.25 6.46401 2.25 5.5C2.25 4.53599 2.2516 3.88843 2.31654 3.4054C2.37858 2.94393 2.4858 2.74644 2.61612 2.61612Z" fill="#1F0000" fill-opacity="0.6"/>
<path fill-rule="evenodd" clip-rule="evenodd" d="M16.448 11.75C15.5495 11.75 14.8003 11.7499 14.2055 11.8299C13.5777 11.9143 13.0109 12.1 12.5555 12.5555C12.1 13.0109 11.9143 13.5777 11.8299 14.2055C11.7499 14.8003 11.75 15.5495 11.75 16.448V16.552C11.75 17.4505 11.7499 18.1997 11.8299 18.7945C11.9143 19.4223 12.1 19.9891 12.5555 20.4445C13.0109 20.9 13.5777 21.0857 14.2055 21.1701C14.8003 21.2501 15.5495 21.25 16.4479 21.25H16.552C17.4504 21.25 18.1997 21.2501 18.7945 21.1701C19.4223 21.0857 19.9891 20.9 20.4445 20.4445C20.9 19.9891 21.0857 19.4223 21.1701 18.7945C21.2501 18.1997 21.25 17.4505 21.25 16.5521V16.448C21.25 15.5496 21.2501 14.8003 21.1701 14.2055C21.0857 13.5777 20.9 13.0109 20.4445 12.5555C19.9891 12.1 19.4223 11.9143 18.7945 11.8299C18.1997 11.7499 17.4505 11.75 16.552 11.75H16.448ZM13.6161 13.6161C13.7464 13.4858 13.9439 13.3786 14.4054 13.3165C14.8884 13.2516 15.536 13.25 16.5 13.25C17.464 13.25 18.1116 13.2516 18.5946 13.3165C19.0561 13.3786 19.2536 13.4858 19.3839 13.6161C19.5142 13.7464 19.6214 13.9439 19.6835 14.4054C19.7484 14.8884 19.75 15.536 19.75 16.5C19.75 17.464 19.7484 18.1116 19.6835 18.5946C19.6214 19.0561 19.5142 19.2536 19.3839 19.3839C19.2536 19.5142 19.0561 19.6214 18.5946 19.6835C18.1116 19.7484 17.464 19.75 16.5 19.75C15.536 19.75 14.8884 19.7484 14.4054 19.6835C13.9439 19.6214 13.7464 19.5142 13.6161 19.3839C13.4858 19.2536 13.3786 19.0561 13.3165 18.5946C13.2516 18.1116 13.25 17.464 13.25 16.5C13.25 15.536 13.2516 14.8884 13.3165 14.4054C13.3786 13.9439 13.4858 13.7464 13.6161 13.6161Z" fill="#1F0000" fill-opacity="0.6"/>
<path fill-rule="evenodd" clip-rule="evenodd" d="M5.448 11.75H5.552C6.45048 11.75 7.1997 11.7499 7.79448 11.8299C8.42228 11.9143 8.98908 12.1 9.44455 12.5555C9.90002 13.0109 10.0857 13.5777 10.1701 14.2055C10.2501 14.8003 10.25 15.5495 10.25 16.448V16.552C10.25 17.4505 10.2501 18.1997 10.1701 18.7945C10.0857 19.4223 9.90002 19.9891 9.44455 20.4445C8.98908 20.9 8.42228 21.0857 7.79448 21.1701C7.19971 21.2501 6.45051 21.25 5.55206 21.25H5.44801C4.54955 21.25 3.80029 21.2501 3.20552 21.1701C2.57773 21.0857 2.01093 20.9 1.55546 20.4445C1.09999 19.9891 0.914319 19.4223 0.829914 18.7945C0.749949 18.1997 0.749973 17.4505 0.750001 16.552V16.448C0.749973 15.5495 0.749949 14.8003 0.829914 14.2055C0.914319 13.5777 1.09999 13.0109 1.55546 12.5555C2.01093 12.1 2.57773 11.9143 3.20552 11.8299C3.8003 11.7499 4.54952 11.75 5.448 11.75ZM3.4054 13.3165C2.94393 13.3786 2.74644 13.4858 2.61612 13.6161C2.4858 13.7464 2.37858 13.9439 2.31654 14.4054C2.2516 14.8884 2.25 15.536 2.25 16.5C2.25 17.464 2.2516 18.1116 2.31654 18.5946C2.37858 19.0561 2.4858 19.2536 2.61612 19.3839C2.74644 19.5142 2.94393 19.6214 3.4054 19.6835C3.88843 19.7484 4.53599 19.75 5.5 19.75C6.46401 19.75 7.11157 19.7484 7.59461 19.6835C8.05607 19.6214 8.25357 19.5142 8.38389 19.3839C8.5142 19.2536 8.62143 19.0561 8.68347 18.5946C8.74841 18.1116 8.75 17.464 8.75 16.5C8.75 15.536 8.74841 14.8884 8.68347 14.4054C8.62143 13.9439 8.5142 13.7464 8.38389 13.6161C8.25357 13.4858 8.05607 13.3786 7.59461 13.3165C7.11157 13.2516 6.46401 13.25 5.5 13.25C4.53599 13.25 3.88843 13.2516 3.4054 13.3165Z" fill="#1F0000" fill-opacity="0.6"/>
<path fill-rule="evenodd" clip-rule="evenodd" d="M16.448 0.750001C15.5495 0.749973 14.8003 0.749949 14.2055 0.829914C13.5777 0.914319 13.0109 1.09999 12.5555 1.55546C12.1 2.01093 11.9143 2.57773 11.8299 3.20552C11.7499 3.8003 11.75 4.54952 11.75 5.448V5.552C11.75 6.45048 11.7499 7.1997 11.8299 7.79448C11.9143 8.42228 12.1 8.98908 12.5555 9.44455C13.0109 9.90002 13.5777 10.0857 14.2055 10.1701C14.8003 10.2501 15.5495 10.25 16.448 10.25H16.552C17.4505 10.25 18.1997 10.2501 18.7945 10.1701C19.4223 10.0857 19.9891 9.90002 20.4445 9.44455C20.9 8.98908 21.0857 8.42228 21.1701 7.79448C21.2501 7.19971 21.25 6.4505 21.25 5.55203V5.44801C21.25 4.54954 21.2501 3.8003 21.1701 3.20552C21.0857 2.57773 20.9 2.01093 20.4445 1.55546C19.9891 1.09999 19.4223 0.914319 18.7945 0.829914C18.1997 0.749949 17.4505 0.749973 16.552 0.750001H16.448ZM13.6161 2.61612C13.7464 2.4858 13.9439 2.37858 14.4054 2.31654C14.8884 2.2516 15.536 2.25 16.5 2.25C17.464 2.25 18.1116 2.2516 18.5946 2.31654C19.0561 2.37858 19.2536 2.4858 19.3839 2.61612C19.5142 2.74644 19.6214 2.94393 19.6835 3.4054C19.7484 3.88843 19.75 4.53599 19.75 5.5C19.75 6.46401 19.7484 7.11157 19.6835 7.59461C19.6214 8.05607 19.5142 8.25357 19.3839 8.38389C19.2536 8.5142 19.0561 8.62143 18.5946 8.68347C18.1116 8.74841 17.464 8.75 16.5 8.75C15.536 8.75 14.8884 8.74841 14.4054 8.68347C13.9439 8.62143 13.7464 8.5142 13.6161 8.38389C13.4858 8.25357 13.3786 8.05607 13.3165 7.59461C13.2516 7.11157 13.25 6.46401 13.25 5.5C13.25 4.53599 13.2516 3.88843 13.3165 3.4054C13.3786 2.94393 13.4858 2.74644 13.6161 2.61612Z" fill="#1F0000" fill-opacity="0.6"/>
</svg>
