<svg width="20" height="20" viewBox="0 0 20 20" fill="none" xmlns="http://www.w3.org/2000/svg">
<path d="M0 4.5C0 2.37868 0 1.31802 0.65901 0.65901C1.31802 0 2.37868 0 4.5 0C6.62132 0 7.68198 0 8.34099 0.65901C9 1.31802 9 2.37868 9 4.5C9 6.62132 9 7.68198 8.34099 8.34099C7.68198 9 6.62132 9 4.5 9C2.37868 9 1.31802 9 0.65901 8.34099C0 7.68198 0 6.62132 0 4.5Z" fill="#F53D47"/>
<path d="M11 15.5C11 13.3787 11 12.318 11.659 11.659C12.318 11 13.3787 11 15.5 11C17.6213 11 18.682 11 19.341 11.659C20 12.318 20 13.3787 20 15.5C20 17.6213 20 18.682 19.341 19.341C18.682 20 17.6213 20 15.5 20C13.3787 20 12.318 20 11.659 19.341C11 18.682 11 17.6213 11 15.5Z" fill="#F53D47"/>
<path d="M0 15.5C0 13.3787 0 12.318 0.65901 11.659C1.31802 11 2.37868 11 4.5 11C6.62132 11 7.68198 11 8.34099 11.659C9 12.318 9 13.3787 9 15.5C9 17.6213 9 18.682 8.34099 19.341C7.68198 20 6.62132 20 4.5 20C2.37868 20 1.31802 20 0.65901 19.341C0 18.682 0 17.6213 0 15.5Z" fill="#F53D47"/>
<path d="M11 4.5C11 2.37868 11 1.31802 11.659 0.65901C12.318 0 13.3787 0 15.5 0C17.6213 0 18.682 0 19.341 0.65901C20 1.31802 20 2.37868 20 4.5C20 6.62132 20 7.68198 19.341 8.34099C18.682 9 17.6213 9 15.5 9C13.3787 9 12.318 9 11.659 8.34099C11 7.68198 11 6.62132 11 4.5Z" fill="#F53D47"/>
</svg>
