<svg width="20" height="20" viewBox="0 0 20 20" fill="none" xmlns="http://www.w3.org/2000/svg">
<path d="M5 3C2.23858 3 0 5.23858 0 8C0 10.0503 1.2341 11.8124 3 12.584V15.25H17L17 12.584C18.7659 11.8124 20 10.0503 20 8C20 5.23858 17.7614 3 15 3C14.7495 3 14.5033 3.01842 14.2626 3.05399C13.6604 1.27806 11.9794 0 10 0C8.02055 0 6.33961 1.27806 5.73736 3.05399C5.49673 3.01842 5.25052 3 5 3Z" fill="#F53D47"/>
<path d="M16.9983 16.75H3.00169C3.01188 18.1469 3.08343 18.9119 3.58579 19.4142C4.17157 20 5.11438 20 7 20H13C14.8856 20 15.8284 20 16.4142 19.4142C16.9166 18.9119 16.9881 18.1469 16.9983 16.75Z" fill="#F53D47"/>
</svg>
