<svg width="22" height="22" viewBox="0 0 22 22" fill="none" xmlns="http://www.w3.org/2000/svg">
<path fill-rule="evenodd" clip-rule="evenodd" d="M6.25285 3.25547C7.09403 1.47951 8.90263 0.25 11 0.25C13.0974 0.25 14.906 1.47951 15.7471 3.25547C15.831 3.25184 15.9153 3.25 16 3.25C19.1756 3.25 21.75 5.82436 21.75 9C21.75 11.1806 20.5363 13.0762 18.75 14.0508L18.75 17.052C18.75 17.9505 18.7501 18.6997 18.6701 19.2945C18.5857 19.9223 18.4 20.4891 17.9445 20.9445C17.4891 21.4 16.9223 21.5857 16.2945 21.6701C15.6997 21.7501 14.9505 21.75 14.052 21.75H7.94801C7.04952 21.75 6.3003 21.7501 5.70552 21.6701C5.07773 21.5857 4.51093 21.4 4.05546 20.9445C3.59999 20.4891 3.41432 19.9223 3.32991 19.2945C3.24994 18.6997 3.24997 17.9505 3.25 17.052L3.25 14.0508C1.46371 13.0762 0.25 11.1806 0.25 9C0.25 5.82436 2.82436 3.25 6 3.25C6.08469 3.25 6.16899 3.25184 6.25285 3.25547ZM5.80262 4.7545C3.54704 4.85762 1.75 6.71895 1.75 9C1.75 10.7416 2.79769 12.2402 4.30028 12.8967C4.57345 13.016 4.75 13.2859 4.75 13.584V16.25H17.25L17.25 13.584C17.25 13.2859 17.4265 13.016 17.6997 12.8967C19.2023 12.2402 20.25 10.7416 20.25 9C20.25 6.71895 18.453 4.85761 16.1974 4.7545C16.2321 4.99825 16.25 5.24718 16.25 5.5V6C16.25 6.41421 15.9142 6.75 15.5 6.75C15.0858 6.75 14.75 6.41421 14.75 6V5.5C14.75 5.07715 14.6803 4.67212 14.5524 4.29486C14.0502 2.81402 12.6484 1.75 11 1.75C9.35162 1.75 7.94981 2.81402 7.44763 4.29486C7.3197 4.67212 7.25 5.07715 7.25 5.5V6C7.25 6.41421 6.91421 6.75 6.5 6.75C6.08579 6.75 5.75 6.41421 5.75 6V5.5C5.75 5.24717 5.76792 4.99825 5.80262 4.7545ZM17.2482 17.75H4.75181C4.75604 18.3194 4.77008 18.7491 4.81654 19.0946C4.87858 19.5561 4.9858 19.7536 5.11612 19.8839C5.24643 20.0142 5.44393 20.1214 5.90539 20.1835C6.38843 20.2484 7.03599 20.25 8 20.25H14C14.964 20.25 15.6116 20.2484 16.0946 20.1835C16.5561 20.1214 16.7536 20.0142 16.8839 19.8839C17.0142 19.7536 17.1214 19.5561 17.1835 19.0946C17.2299 18.7491 17.244 18.3194 17.2482 17.75Z" fill="#1F0000" fill-opacity="0.6"/>
</svg>
