<svg width="20" height="19" viewBox="0 0 20 19" fill="none" xmlns="http://www.w3.org/2000/svg">
<path d="M4.97121 0.436723C3.20935 0.754343 2.57392 1.03667 2.16956 1.67191C1.47637 2.69536 1.47637 3.54235 2.14068 4.56579C2.68945 5.34219 2.74722 5.34219 5.11563 4.95399C6.44425 4.70695 8.63936 4.5305 9.99686 4.5305C11.3544 4.5305 13.5495 4.70695 14.8781 4.95399C17.2465 5.34219 17.3043 5.34219 17.853 4.56579C18.5462 3.47176 18.5174 2.55419 17.7086 1.56604C16.4955 0.119103 9.93909 -0.480847 4.97121 0.436723Z" fill="#1F0000" fill-opacity="0.87"/>
<path d="M5.66455 5.62465C4.79806 5.80111 4.01822 6.08343 3.90268 6.2246C3.7005 6.47164 2.77625 15.0474 2.77625 16.4943C2.77625 16.9178 3.09396 17.6589 3.49832 18.1177C4.19151 19 4.2204 19 9.997 19C15.7736 19 15.8025 19 16.4957 18.1177C17.3622 17.0943 17.3622 16.6355 16.6979 10.5654C16.2069 6.15402 16.2069 6.15402 15.3404 5.87169C14.0117 5.4129 7.42641 5.23645 5.66455 5.62465Z" fill="#1F0000" fill-opacity="0.87"/>
<path d="M1.64975 6.57702C0.841021 7.38872 0.118945 13.6705 0.725489 14.5528C1.18762 15.2234 2.19852 15.2939 2.19852 14.6587C2.19852 14.4469 2.4007 12.6471 2.63177 10.7061C2.86283 8.76507 3.06501 7.00051 3.06501 6.78877C3.06501 6.08294 2.25629 5.94178 1.64975 6.57702Z" fill="#1F0000" fill-opacity="0.87"/>
<path d="M16.9287 6.71819C16.9287 6.96522 17.1309 8.76507 17.362 10.7061C17.593 12.6471 17.7952 14.4469 17.7952 14.6587C17.7952 15.2939 18.8061 15.2234 19.2682 14.5528C19.5571 14.094 19.5859 13.3882 19.2971 10.6002C19.0949 8.76507 18.8061 7.03581 18.6328 6.75348C18.2284 6.15353 16.9287 6.15353 16.9287 6.71819Z" fill="#1F0000" fill-opacity="0.87"/>
</svg>
