<svg width="28" height="23" viewBox="0 0 28 23" fill="none" xmlns="http://www.w3.org/2000/svg">
<mask id="path-1-outside-1_137_13" maskUnits="userSpaceOnUse" x="0" y="0" width="28" height="23" fill="black">
<rect fill="white" width="28" height="23"/>
<path d="M25.9131 12.7006C25.7331 10.3012 25.4365 9.83394 25.3245 9.65819C25.067 9.25206 24.6549 8.98666 24.2188 8.70819C24.1942 8.69271 24.1729 8.67063 24.1566 8.64371C24.1404 8.61678 24.1297 8.58574 24.1252 8.55304C24.1208 8.52034 24.1229 8.48686 24.1312 8.45526C24.1396 8.42366 24.154 8.39479 24.1733 8.37094C24.2541 8.2737 24.3162 8.15685 24.3553 8.02842C24.3944 7.9 24.4096 7.76304 24.3999 7.62697C24.3811 7.38568 24.2866 7.16159 24.1351 6.99915C23.9837 6.8367 23.7863 6.74778 23.5823 6.75H22.8021C22.7687 6.75024 22.7353 6.75281 22.7021 6.75772C22.6794 6.74599 22.6558 6.73665 22.6316 6.72981C22.1695 5.57022 21.537 3.98253 20.2258 3.20769C18.281 2.05937 14.6984 2 13.9983 2C13.2982 2 9.71571 2.05937 7.77343 3.20591C6.46223 3.98075 5.82964 5.56844 5.36757 6.72803L5.36357 6.73753C5.34053 6.74138 5.31789 6.74815 5.29606 6.75772C5.26288 6.75281 5.22948 6.75024 5.19605 6.75H4.41443C4.21035 6.74778 4.01301 6.8367 3.86157 6.99915C3.71012 7.16159 3.61562 7.38568 3.59681 7.62697C3.58793 7.76273 3.60384 7.89916 3.64345 8.02694C3.68307 8.15473 3.74545 8.27085 3.82635 8.36738C3.8457 8.39123 3.86012 8.4201 3.86846 8.4517C3.87681 8.4833 3.87886 8.51678 3.87445 8.54948C3.87004 8.58218 3.85928 8.61322 3.84304 8.64014C3.82679 8.66707 3.8055 8.68914 3.78084 8.70462C3.34478 8.98487 2.93071 9.25028 2.67518 9.65462C2.56316 9.83275 2.26712 10.2977 2.08659 12.697C1.98658 14.0472 1.97157 15.4449 2.05008 16.345C2.21461 18.2153 2.52315 19.3458 2.53616 19.3927C2.5835 19.5634 2.67066 19.7147 2.7875 19.8289C2.90434 19.9431 3.04608 20.0157 3.19625 20.0381V20.05C3.19625 20.302 3.28055 20.5436 3.4306 20.7218C3.58065 20.8999 3.78417 21 3.99637 21H6.79678C7.00899 21 7.2125 20.8999 7.36255 20.7218C7.5126 20.5436 7.5969 20.302 7.5969 20.05C8.02746 20.05 8.32701 19.9586 8.64456 19.8612C9.10301 19.7145 9.57163 19.6169 10.0448 19.5697C11.5705 19.3969 13.0877 19.3375 13.9983 19.3375C14.8905 19.3375 16.4747 19.3969 18.0029 19.5697C18.4779 19.6171 18.9484 19.715 19.4086 19.8624C19.7127 19.955 20.0012 20.0405 20.4008 20.0494C20.4008 20.3014 20.4851 20.543 20.6351 20.7212C20.7852 20.8993 20.9887 20.9994 21.2009 20.9994H24.0013C24.2135 20.9994 24.417 20.8993 24.5671 20.7212C24.7171 20.543 24.8014 20.3014 24.8014 20.0494V20.0423C24.952 20.0203 25.0941 19.9479 25.2114 19.8336C25.3286 19.7194 25.416 19.5679 25.4635 19.3969C25.4765 19.35 25.7851 18.2195 25.9496 16.3492C26.0281 15.4484 26.0141 14.0531 25.9131 12.7006ZM6.81379 7.54028C7.21384 6.53091 7.67141 5.38853 8.48603 4.907C9.66321 4.21113 12.1031 3.89762 13.9983 3.89762C15.8936 3.89762 18.3335 4.20875 19.5107 4.907C20.3253 5.38853 20.7808 6.5315 21.1829 7.54028L21.2329 7.66912C21.2622 7.74247 21.2751 7.8235 21.2705 7.90446C21.2658 7.98543 21.2438 8.06364 21.2065 8.13164C21.1692 8.19963 21.1178 8.25514 21.0573 8.29288C20.9968 8.33061 20.9292 8.34931 20.8609 8.34719C19.1991 8.29375 15.6986 8.12275 13.9983 8.12275C12.2981 8.12275 8.79758 8.29791 7.13333 8.35134C7.06501 8.35347 6.99736 8.33477 6.93685 8.29703C6.87634 8.2593 6.82498 8.20379 6.78767 8.13579C6.75037 8.0678 6.72835 7.98959 6.72373 7.90862C6.71911 7.82765 6.73204 7.74663 6.76128 7.67328C6.77878 7.62934 6.79728 7.58481 6.81379 7.54028ZM7.41037 12.2683C6.55015 12.3912 5.68442 12.4519 4.81799 12.45C4.28791 12.45 3.74133 12.2719 3.63982 11.7114C3.57031 11.3343 3.57781 11.1224 3.61531 10.9092C3.64682 10.7281 3.69683 10.5963 3.94686 10.55C4.59696 10.4312 4.96051 10.5803 6.02467 10.9526C6.73027 11.199 7.23935 11.5273 7.52939 11.7874C7.67491 11.9156 7.5974 12.2505 7.41037 12.2683ZM18.481 17.1371C17.8229 17.2261 16.5067 17.1935 14.0133 17.1935C11.52 17.1935 10.2043 17.2261 9.54619 17.1371C8.86709 17.0474 8.00146 16.285 8.59255 15.6058C8.98611 15.1581 9.90424 14.8232 11.1269 14.635C12.3496 14.4468 12.8672 14.35 14.0083 14.35C15.1495 14.35 15.6146 14.4094 16.8898 14.6356C18.165 14.8618 19.1286 15.2008 19.4241 15.6064C19.9632 16.3331 19.1596 17.0427 18.481 17.1406V17.1371ZM24.3569 11.7108C24.2569 12.2737 23.7068 12.4494 23.1787 12.4494C22.2957 12.4497 21.4134 12.389 20.5363 12.2677C20.3833 12.2505 20.3123 11.9317 20.4673 11.7868C20.7528 11.5202 21.2674 11.1984 21.972 10.952C23.0362 10.5797 23.6498 10.4307 24.1768 10.5548C24.3054 10.585 24.3734 10.7489 24.3814 10.8516C24.4166 11.1376 24.4083 11.4288 24.3569 11.7114V11.7108Z"/>
</mask>
<path d="M25.9131 12.7006L27.4089 12.5888L27.4089 12.5883L25.9131 12.7006ZM25.3245 9.65819L24.0577 10.4615L24.0596 10.4644L25.3245 9.65819ZM24.2188 8.70819L25.0262 7.44394L25.0164 7.4378L24.2188 8.70819ZM24.1733 8.37094L23.0194 7.41261L23.0139 7.41923L23.0085 7.4259L24.1733 8.37094ZM24.3999 7.62697L25.8961 7.52017L25.8953 7.51041L24.3999 7.62697ZM23.5823 6.75V8.25H23.5904L23.5986 8.24991L23.5823 6.75ZM22.8021 6.75L22.8021 5.24996L22.7916 5.25004L22.8021 6.75ZM22.7021 6.75772L22.0153 8.09124L22.4442 8.31216L22.9215 8.24159L22.7021 6.75772ZM22.6316 6.72981L21.2382 7.28507L21.5117 7.97159L22.2228 8.17302L22.6316 6.72981ZM20.2258 3.20769L20.9889 1.91632L20.9884 1.91604L20.2258 3.20769ZM7.77343 3.20591L7.01092 1.91417L7.0103 1.91454L7.77343 3.20591ZM5.36757 6.72803L6.74998 7.31024L6.75563 7.29681L6.76102 7.28328L5.36757 6.72803ZM5.36357 6.73753L5.61069 8.21704L6.42538 8.08096L6.74598 7.31974L5.36357 6.73753ZM5.29606 6.75772L5.07666 8.24159L5.5033 8.30467L5.8983 8.13151L5.29606 6.75772ZM5.19605 6.75L5.2066 5.25H5.19605V6.75ZM4.41443 6.75L4.3981 8.24991L4.40626 8.25H4.41443V6.75ZM3.59681 7.62697L2.10135 7.51041L2.10062 7.51972L2.10001 7.52904L3.59681 7.62697ZM3.82635 8.36738L4.99121 7.42234L4.98368 7.41306L4.976 7.4039L3.82635 8.36738ZM3.78084 8.70462L2.98328 7.43423L2.97655 7.43846L2.96986 7.44276L3.78084 8.70462ZM2.67518 9.65462L1.40717 8.85327L1.40539 8.8561L2.67518 9.65462ZM2.08659 12.697L0.590817 12.5845L0.590688 12.5862L2.08659 12.697ZM2.05008 16.345L0.555758 16.4753L0.555855 16.4764L2.05008 16.345ZM2.53616 19.3927L1.09066 19.7934L1.09073 19.7936L2.53616 19.3927ZM3.19625 20.0381H4.69625V18.7455L3.41785 18.5546L3.19625 20.0381ZM3.19625 20.05L1.69625 20.05L3.19625 20.05ZM7.5969 20.05V18.55H6.0969V20.05H7.5969ZM8.64456 19.8612L9.08432 21.2953L9.09299 21.2926L9.10163 21.2899L8.64456 19.8612ZM10.0448 19.5697L10.1939 21.0622L10.2038 21.0612L10.2136 21.0601L10.0448 19.5697ZM18.0029 19.5697L17.8344 21.0602L17.8442 21.0613L17.854 21.0622L18.0029 19.5697ZM19.4086 19.8624L18.9513 21.2909L18.9614 21.2942L18.9715 21.2973L19.4086 19.8624ZM20.4008 20.0494H21.9008V18.5825L20.4342 18.5498L20.4008 20.0494ZM24.8014 20.0423L24.5844 18.5581L23.3014 18.7456V20.0423H24.8014ZM25.4635 19.3969L26.9088 19.7982L26.909 19.7976L25.4635 19.3969ZM25.9496 16.3492L27.4438 16.4806L27.4439 16.4794L25.9496 16.3492ZM6.81379 7.54028L5.41932 6.98759L5.41311 7.00325L5.40726 7.01905L6.81379 7.54028ZM8.48603 4.907L9.24932 6.19828L9.24935 6.19826L8.48603 4.907ZM19.5107 4.907L18.7454 6.19712L18.7474 6.19828L19.5107 4.907ZM21.1829 7.54028L22.5813 6.99752L22.5763 6.98493L21.1829 7.54028ZM21.2329 7.66912L19.8345 8.21189L19.8396 8.22461L21.2329 7.66912ZM20.8609 8.34719L20.8126 9.84641L20.8143 9.84646L20.8609 8.34719ZM7.13333 8.35134L7.17989 9.85062L7.18147 9.85057L7.13333 8.35134ZM6.76128 7.67328L8.15463 8.22877L8.15478 8.22839L6.76128 7.67328ZM7.41037 12.2683L7.26816 10.7751L7.23307 10.7784L7.19817 10.7834L7.41037 12.2683ZM4.81799 12.45L4.82131 10.95H4.81799L4.81799 12.45ZM3.63982 11.7114L5.11581 11.4441L5.11496 11.4394L3.63982 11.7114ZM3.61531 10.9092L5.09262 11.1692L5.09312 11.1663L3.61531 10.9092ZM3.94686 10.55L3.67732 9.07441L3.67368 9.07509L3.94686 10.55ZM6.02467 10.9526L5.52935 12.3684L5.53014 12.3687L6.02467 10.9526ZM7.52939 11.7874L6.52799 12.9042L6.53762 12.9127L7.52939 11.7874ZM18.481 17.1371H19.981V15.4204L18.2798 15.6506L18.481 17.1371ZM9.54619 17.1371L9.74736 15.6506L9.74252 15.65L9.54619 17.1371ZM8.59255 15.6058L7.46595 14.6154L7.461 14.6211L8.59255 15.6058ZM19.4241 15.6064L18.2119 16.4899L18.2194 16.5L19.4241 15.6064ZM18.481 17.1406H16.981V18.8727L18.6953 18.6252L18.481 17.1406ZM24.3569 11.7108H25.8569L22.88 11.4484L24.3569 11.7108ZM23.1787 12.4494L23.1787 10.9494L23.1783 10.9494L23.1787 12.4494ZM20.5363 12.2677L20.7417 10.7819L20.7229 10.7793L20.704 10.7771L20.5363 12.2677ZM20.4673 11.7868L19.4436 10.6904L19.4431 10.6909L20.4673 11.7868ZM21.972 10.952L22.4672 12.3679L22.4673 12.3678L21.972 10.952ZM24.1768 10.5548L24.5208 9.09473L24.5206 9.09467L24.1768 10.5548ZM24.3814 10.8516L22.8859 10.9681L22.8885 11.0017L22.8926 11.0352L24.3814 10.8516ZM24.3569 11.7114H22.8569L25.8326 11.9802L24.3569 11.7114ZM27.4089 12.5883C27.2235 10.1169 26.9045 9.34624 26.5894 8.85197L24.0596 10.4644C24.0705 10.4815 24.063 10.4688 24.0641 10.4714C24.071 10.4871 24.0994 10.5561 24.1388 10.7123C24.2201 11.0346 24.3306 11.6567 24.4173 12.8128L27.4089 12.5883ZM26.5913 8.85488C26.1246 8.11896 25.4062 7.68668 25.0262 7.44397L23.4115 9.9724C23.6408 10.1188 23.7843 10.2127 23.901 10.3062C24.008 10.3918 24.0447 10.441 24.0577 10.4615L26.5913 8.85488ZM25.0164 7.4378C25.2062 7.55692 25.3459 7.71116 25.441 7.8688L22.8723 9.41862C22.9999 9.6301 23.1822 9.82849 23.4213 9.97858L25.0164 7.4378ZM25.441 7.8688C25.5359 8.02613 25.5901 8.19217 25.6118 8.35246L22.6387 8.75362C22.6692 8.97932 22.7449 9.20743 22.8723 9.41862L25.441 7.8688ZM25.6118 8.35246C25.6334 8.51286 25.6239 8.67776 25.5815 8.83834L22.681 8.07218C22.6219 8.29596 22.6082 8.52782 22.6387 8.75362L25.6118 8.35246ZM25.5815 8.83834C25.5391 8.99876 25.4612 9.1644 25.3382 9.31597L23.0085 7.4259C22.8468 7.62518 22.74 7.84856 22.681 8.07218L25.5815 8.83834ZM25.3273 9.32926C25.5432 9.06926 25.6967 8.77252 25.7902 8.46536L22.9203 7.59149C22.9356 7.54118 22.965 7.47814 23.0194 7.41261L25.3273 9.32926ZM25.7902 8.46536C25.8838 8.15809 25.9187 7.83668 25.8961 7.52017L22.9037 7.73376C22.9005 7.68941 22.905 7.64191 22.9203 7.59149L25.7902 8.46536ZM25.8953 7.51041C25.8527 6.96303 25.6365 6.40979 25.2323 5.97626L23.038 8.02203C22.9367 7.91338 22.9095 7.80832 22.9044 7.74353L25.8953 7.51041ZM25.2323 5.97626C24.8216 5.53577 24.2316 5.24284 23.5659 5.25009L23.5986 8.24991C23.3411 8.25272 23.1458 8.13764 23.038 8.02203L25.2323 5.97626ZM23.5823 5.25H22.8021V8.25H23.5823V5.25ZM22.7916 5.25004C22.688 5.25077 22.5848 5.25875 22.4827 5.27385L22.9215 8.24159C22.8858 8.24687 22.8494 8.2497 22.8127 8.24996L22.7916 5.25004ZM23.3889 5.4242C23.2793 5.36771 23.1627 5.32123 23.0405 5.2866L22.2228 8.17302C22.1488 8.15208 22.0794 8.12427 22.0153 8.09124L23.3889 5.4242ZM24.0251 6.17456C23.7995 5.60856 23.4858 4.81356 23.0364 4.05782C22.5844 3.29766 21.9395 2.4781 20.9889 1.91632L19.4626 4.49906C19.8232 4.71212 20.1502 5.07382 20.4578 5.59112C20.7681 6.11283 21.0016 6.69147 21.2382 7.28507L24.0251 6.17456ZM20.9884 1.91604C19.7416 1.17985 18.1052 0.849329 16.8374 0.685584C15.5232 0.515833 14.3823 0.5 13.9983 0.5V3.5C14.3145 3.5 15.3149 3.51385 16.4531 3.66087C17.6379 3.81389 18.7651 4.08721 19.4631 4.49933L20.9884 1.91604ZM13.9983 0.5C13.6144 0.5 12.4736 0.515831 11.1598 0.685333C9.89259 0.848816 8.25663 1.17882 7.01092 1.91417L8.53594 4.49764C9.23251 4.08646 10.359 3.81351 11.5436 3.66067C12.6816 3.51386 13.6822 3.5 13.9983 3.5V0.5ZM7.0103 1.91454C6.05965 2.47632 5.41481 3.29588 4.96279 4.05604C4.51341 4.81178 4.19966 5.60678 3.97413 6.17278L6.76102 7.28328C6.99755 6.68969 7.23114 6.11105 7.54136 5.58933C7.84896 5.07204 8.17601 4.71034 8.53656 4.49728L7.0103 1.91454ZM3.98517 6.14583L3.98117 6.15533L6.74598 7.31974L6.74998 7.31024L3.98517 6.14583ZM5.11646 5.25803C4.96863 5.28272 4.82687 5.3256 4.69383 5.38392L5.8983 8.13151C5.80892 8.1707 5.71242 8.20004 5.61069 8.21704L5.11646 5.25803ZM5.51546 5.27385C5.41335 5.25875 5.31017 5.25077 5.2066 5.25004L5.18549 8.24996C5.1488 8.2497 5.11241 8.24687 5.07666 8.24159L5.51546 5.27385ZM5.19605 5.25H4.41443V8.25H5.19605V5.25ZM4.43077 5.25009C3.7651 5.24284 3.17511 5.53577 2.76443 5.97626L4.9587 8.02203C4.85091 8.13764 4.65559 8.25272 4.3981 8.24991L4.43077 5.25009ZM2.76443 5.97626C2.36024 6.40979 2.14401 6.96303 2.10135 7.51041L5.09228 7.74353C5.08723 7.80832 5.06 7.91338 4.9587 8.02203L2.76443 5.97626ZM2.10001 7.52904C2.07936 7.84473 2.11584 8.16506 2.21072 8.47111L5.07619 7.58278C5.09183 7.63326 5.0965 7.68073 5.09361 7.7249L2.10001 7.52904ZM2.21072 8.47111C2.30557 8.77705 2.46007 9.07237 2.67669 9.33085L4.976 7.4039C5.03084 7.46933 5.06057 7.53241 5.07619 7.58278L2.21072 8.47111ZM2.66148 9.31241C2.53851 9.16083 2.46058 8.99519 2.41821 8.83478L5.31872 8.06862C5.25966 7.845 5.15289 7.62162 4.99121 7.42234L2.66148 9.31241ZM2.41821 8.83478C2.3758 8.67422 2.36627 8.50932 2.38792 8.34889L5.36098 8.75006C5.39145 8.52423 5.37783 8.29238 5.31872 8.06862L2.41821 8.83478ZM2.38792 8.34889C2.40955 8.18858 2.46379 8.02255 2.5587 7.86523L5.12737 9.41505C5.25478 9.20389 5.33052 8.97578 5.36098 8.75006L2.38792 8.34889ZM2.5587 7.86523C2.65381 7.70761 2.79352 7.55336 2.98328 7.43423L4.5784 9.97502C4.81748 9.82492 4.99978 9.62653 5.12737 9.41505L2.5587 7.86523ZM2.96986 7.44276C2.5978 7.68187 1.87237 8.11717 1.40717 8.85327L3.94318 10.456C3.95379 10.4392 3.98872 10.3913 4.09718 10.3045C4.21553 10.2099 4.35982 10.1156 4.59182 9.96649L2.96986 7.44276ZM1.40539 8.8561C1.09649 9.3473 0.777107 10.1085 0.590818 12.5845L3.58236 12.8095C3.66935 11.6534 3.77979 11.0318 3.86102 10.7097C3.90038 10.5537 3.92888 10.4843 3.93606 10.4679C3.93775 10.464 3.93087 10.4756 3.94496 10.4531L1.40539 8.8561ZM0.590688 12.5862C0.487465 13.9797 0.467635 15.465 0.555758 16.4753L3.54441 16.2147C3.47551 15.4247 3.48569 14.1147 3.58249 12.8078L0.590688 12.5862ZM0.555855 16.4764C0.729872 18.4547 1.05823 19.6764 1.09066 19.7934L3.98165 18.992C3.98808 19.0152 3.69935 17.9759 3.54431 16.2136L0.555855 16.4764ZM1.09073 19.7936C1.20266 20.1972 1.41707 20.5868 1.73884 20.9014L3.83616 18.7564C3.92424 18.8425 3.96435 18.9297 3.98158 18.9918L1.09073 19.7936ZM1.73884 20.9014C2.06311 21.2185 2.4882 21.449 2.97466 21.5217L3.41785 18.5546C3.60395 18.5824 3.74557 18.6678 3.83616 18.7564L1.73884 20.9014ZM1.69625 20.0381V20.05H4.69625V20.0381H1.69625ZM1.69625 20.05C1.69625 20.6245 1.88621 21.2166 2.28331 21.688L4.5779 19.7555C4.67489 19.8706 4.69625 19.9794 4.69625 20.05L1.69625 20.05ZM2.28331 21.688C2.68688 22.1672 3.29509 22.5 3.99637 22.5V19.5C4.27324 19.5 4.47443 19.6326 4.5779 19.7555L2.28331 21.688ZM3.99637 22.5H6.79678V19.5H3.99637V22.5ZM6.79678 22.5C7.49806 22.5 8.10627 22.1672 8.50985 21.688L6.21526 19.7555C6.31873 19.6326 6.51991 19.5 6.79678 19.5V22.5ZM8.50985 21.688C8.90694 21.2166 9.0969 20.6245 9.0969 20.05H6.0969C6.0969 19.9794 6.11826 19.8706 6.21526 19.7555L8.50985 21.688ZM7.5969 21.55C8.26896 21.55 8.75358 21.3967 9.08432 21.2953L8.2048 18.4271C8.03847 18.4781 7.94802 18.5047 7.85761 18.5235C7.77986 18.5397 7.69996 18.55 7.5969 18.55V21.55ZM9.10163 21.2899C9.46122 21.1748 9.82668 21.0989 10.1939 21.0622L9.89558 18.0771C9.31657 18.135 8.74481 18.2542 8.18749 18.4325L9.10163 21.2899ZM10.2136 21.0601C11.6772 20.8944 13.1376 20.8375 13.9983 20.8375V17.8375C13.0378 17.8375 11.4638 17.8994 9.87597 18.0792L10.2136 21.0601ZM13.9983 20.8375C14.8428 20.8375 16.3701 20.8946 17.8344 21.0602L18.1714 18.0792C16.5793 17.8991 14.9381 17.8375 13.9983 17.8375V20.8375ZM17.854 21.0622C18.2229 21.0991 18.5901 21.1753 18.9513 21.2909L19.866 18.4338C19.3067 18.2547 18.7329 18.135 18.1519 18.0771L17.854 21.0622ZM18.9715 21.2973C19.2907 21.3945 19.7475 21.5352 20.3674 21.549L20.4342 18.5498C20.2549 18.5458 20.1347 18.5155 19.8458 18.4275L18.9715 21.2973ZM18.9008 20.0494C18.9008 20.6239 19.0907 21.216 19.4878 21.6874L21.7824 19.7549C21.8794 19.87 21.9008 19.9789 21.9008 20.0494H18.9008ZM19.4878 21.6874C19.8914 22.1666 20.4996 22.4994 21.2009 22.4994V19.4994C21.4778 19.4994 21.679 19.632 21.7824 19.7549L19.4878 21.6874ZM21.2009 22.4994H24.0013V19.4994H21.2009V22.4994ZM24.0013 22.4994C24.7026 22.4994 25.3108 22.1666 25.7144 21.6874L23.4198 19.7549C23.5233 19.632 23.7244 19.4994 24.0013 19.4994V22.4994ZM25.7144 21.6874C26.1115 21.216 26.3014 20.6239 26.3014 20.0494H23.3014C23.3014 19.9789 23.3228 19.87 23.4198 19.7549L25.7144 21.6874ZM26.3014 20.0494V20.0423H23.3014V20.0494H26.3014ZM25.0184 21.5265C25.5062 21.4552 25.9329 21.2251 26.2584 20.9078L24.1643 18.7595C24.2554 18.6708 24.3977 18.5854 24.5844 18.5581L25.0184 21.5265ZM26.2584 20.9078C26.5814 20.5929 26.7966 20.2025 26.9088 19.7982L24.0182 18.9955C24.0355 18.9333 24.0758 18.8458 24.1643 18.7595L26.2584 20.9078ZM26.909 19.7976C26.9415 19.6806 27.2698 18.4588 27.4438 16.4806L24.4554 16.2177C24.3003 17.9801 24.0116 19.0194 24.018 18.9962L26.909 19.7976ZM27.4439 16.4794C27.532 15.469 27.5133 13.9863 27.4089 12.5888L24.4173 12.8123C24.5149 14.12 24.5242 15.4278 24.4553 16.2189L27.4439 16.4794ZM8.20825 8.09297C8.41482 7.57179 8.59344 7.13049 8.80092 6.76267C9.0127 6.38724 9.17108 6.24452 9.24932 6.19828L7.72274 3.61573C6.98636 4.05101 6.50865 4.72024 6.18797 5.28873C5.863 5.86483 5.61281 6.49939 5.41932 6.98759L8.20825 8.09297ZM9.24935 6.19826C9.59322 5.99498 10.2738 5.77826 11.219 5.62103C12.1236 5.47055 13.1245 5.39762 13.9983 5.39762V2.39762C12.9769 2.39762 11.8102 2.48145 10.7267 2.66169C9.68391 2.83518 8.55602 3.12314 7.72272 3.61574L9.24935 6.19826ZM13.9983 5.39762C14.8727 5.39762 15.8738 5.47004 16.7781 5.62021C17.7233 5.77716 18.4026 5.99379 18.7454 6.19712L20.2759 3.61688C19.4415 3.12196 18.3124 2.8339 17.2695 2.66073C16.1858 2.48077 15.0192 2.39762 13.9983 2.39762V5.39762ZM18.7474 6.19828C18.8249 6.24411 18.9828 6.38621 19.1947 6.76228C19.4025 7.13113 19.5809 7.57232 19.7895 8.09564L22.5763 6.98493C22.3828 6.49946 22.1324 5.86477 21.8083 5.28956C21.4883 4.72157 21.011 4.05143 20.2739 3.61573L18.7474 6.19828ZM19.7845 8.08302L19.8345 8.21187L22.6313 7.12638L22.5813 6.99754L19.7845 8.08302ZM19.8396 8.22461C19.7854 8.08889 19.7654 7.95063 19.7729 7.819L22.768 7.98993C22.7848 7.69636 22.7389 7.39606 22.6263 7.11363L19.8396 8.22461ZM19.7729 7.819C19.7804 7.68743 19.8164 7.54684 19.8915 7.41007L22.5216 8.8532C22.6712 8.58044 22.7513 8.28343 22.768 7.98993L19.7729 7.819ZM19.8915 7.41007C19.9667 7.27298 20.0871 7.13013 20.2636 7.02008L21.851 9.56568C22.1485 9.38016 22.3717 9.12628 22.5216 8.8532L19.8915 7.41007ZM20.2636 7.02008C20.4432 6.9081 20.6662 6.84042 20.9074 6.84791L20.8143 9.84646C21.1922 9.8582 21.5505 9.75312 21.851 9.56568L20.2636 7.02008ZM20.9091 6.84796C19.3056 6.7964 15.7285 6.62275 13.9983 6.62275V9.62275C15.6687 9.62275 19.0926 9.7911 20.8126 9.84641L20.9091 6.84796ZM13.9983 6.62275C12.2689 6.62275 8.68713 6.80068 7.08519 6.85212L7.18147 9.85057C8.90803 9.79513 12.3273 9.62275 13.9983 9.62275V6.62275ZM7.08677 6.85207C7.32802 6.84457 7.55101 6.91226 7.73057 7.02423L6.14314 9.56983C6.44372 9.75727 6.802 9.86236 7.17989 9.85062L7.08677 6.85207ZM7.73057 7.02423C7.90703 7.13428 8.02749 7.27713 8.10272 7.41422L5.47263 8.85736C5.62248 9.13045 5.84566 9.38432 6.14314 9.56983L7.73057 7.02423ZM8.10272 7.41422C8.17777 7.551 8.21378 7.69158 8.22129 7.82315L5.22617 7.99409C5.24292 8.28759 5.32296 8.5846 5.47263 8.85736L8.10272 7.41422ZM8.22129 7.82315C8.22881 7.9548 8.20874 8.09305 8.15463 8.22877L5.36793 7.11779C5.25533 7.40021 5.20941 7.70051 5.22617 7.99409L8.22129 7.82315ZM8.15478 8.22839C8.16118 8.21233 8.19546 8.12858 8.22031 8.06151L5.40726 7.01905C5.39911 7.04105 5.39638 7.04636 5.36777 7.11818L8.15478 8.22839ZM7.19817 10.7834C6.40912 10.8962 5.61542 10.9518 4.82131 10.95L4.81468 13.95C5.75342 13.9521 6.69117 13.8863 7.62257 13.7532L7.19817 10.7834ZM4.81799 10.95C4.76676 10.95 4.73339 10.9455 4.71854 10.9425C4.70241 10.9393 4.72535 10.9414 4.77221 10.9664C4.82247 10.9931 4.90344 11.0481 4.97918 11.1462C5.05826 11.2485 5.10007 11.3572 5.11581 11.4441L2.16383 11.9787C2.30689 12.7686 2.79764 13.3143 3.36418 13.6154C3.87401 13.8864 4.41345 13.95 4.81799 13.95L4.81799 10.95ZM5.11496 11.4394C5.09082 11.3085 5.08761 11.2465 5.08723 11.2237C5.08698 11.2094 5.08721 11.1999 5.09262 11.1692L2.13801 10.6493C2.06522 11.063 2.06761 11.4568 2.16468 11.9833L5.11496 11.4394ZM5.09312 11.1663C5.10457 11.1005 5.08003 11.3466 4.88359 11.5994C4.64083 11.9118 4.33683 12.0033 4.22005 12.0249L3.67368 9.07509C3.30686 9.14303 2.85284 9.32353 2.51469 9.75869C2.22286 10.1343 2.15757 10.5369 2.13751 10.6521L5.09312 11.1663ZM4.2164 12.0256C4.34068 12.0029 4.38998 12.0054 4.49992 12.0303C4.69758 12.0749 4.9439 12.1636 5.52935 12.3684L6.51999 9.5367C5.56783 9.2036 4.79591 8.87009 3.67733 9.07442L4.2164 12.0256ZM5.53014 12.3687C6.06778 12.5564 6.39984 12.7893 6.52802 12.9042L8.53076 10.6706C8.07885 10.2654 7.39277 9.84149 6.5192 9.53643L5.53014 12.3687ZM6.53762 12.9127C6.02966 12.465 6.09114 11.9054 6.13631 11.718C6.17406 11.5612 6.41798 10.856 7.26816 10.7751L7.55259 13.7616C8.5898 13.6628 8.96598 12.7812 9.05287 12.4206C9.14717 12.0291 9.17464 11.238 8.52117 10.662L6.53762 12.9127ZM18.2798 15.6506C18.0636 15.6799 17.6674 15.6956 16.9292 15.6987C16.2046 15.7017 15.2837 15.6935 14.0133 15.6935V18.6935C15.2363 18.6935 16.2203 18.7016 16.9416 18.6987C17.6493 18.6957 18.2403 18.6833 18.6822 18.6235L18.2798 15.6506ZM14.0133 15.6935C12.743 15.6935 11.8222 15.7017 11.0977 15.6987C10.3596 15.6956 9.96359 15.6799 9.74735 15.6506L9.34502 18.6235C9.78688 18.6833 10.3777 18.6957 11.0854 18.6987C11.8066 18.7016 12.7904 18.6935 14.0133 18.6935V15.6935ZM9.74252 15.65C9.79245 15.6566 9.79357 15.6654 9.76605 15.6499C9.73969 15.635 9.74379 15.6295 9.76825 15.6604C9.79097 15.689 9.88319 15.8175 9.89472 16.0421C9.90807 16.3023 9.80331 16.4994 9.7241 16.5905L7.461 14.6211C7.08624 15.0518 6.86802 15.5989 6.89866 16.1959C6.92747 16.7572 7.16772 17.2093 7.41784 17.5247C7.88849 18.118 8.62648 18.5287 9.34986 18.6242L9.74252 15.65ZM9.71913 16.5961C9.68146 16.639 9.746 16.5522 10.0794 16.4261C10.3848 16.3106 10.812 16.2012 11.3551 16.1175L10.8987 13.1525C10.2192 13.2571 9.57594 13.4091 9.01822 13.6201C8.4885 13.8204 7.89719 14.1249 7.46597 14.6154L9.71913 16.5961ZM11.3551 16.1175C12.5889 15.9276 12.9982 15.85 14.0083 15.85V12.85C12.7361 12.85 12.1103 12.966 10.8987 13.1525L11.3551 16.1175ZM14.0083 15.85C15.0342 15.85 15.407 15.896 16.6278 16.1125L17.1518 13.1587C15.8221 12.9228 15.2648 12.85 14.0083 12.85V15.85ZM16.6278 16.1125C17.2127 16.2163 17.6761 16.3378 17.9983 16.4585C18.159 16.5186 18.2554 16.5679 18.3033 16.597C18.3618 16.6326 18.2974 16.6072 18.2119 16.4898L20.6364 14.7229C20.2109 14.1391 19.5263 13.8272 19.0503 13.649C18.498 13.4422 17.842 13.2811 17.1518 13.1587L16.6278 16.1125ZM18.2194 16.5C18.1675 16.4301 18.0893 16.2685 18.1023 16.0498C18.114 15.8522 18.193 15.7297 18.2256 15.6879C18.2568 15.6478 18.2711 15.6454 18.253 15.6555C18.2352 15.6656 18.2338 15.6608 18.2667 15.656L18.6953 18.6252C19.3915 18.5247 20.1201 18.1379 20.5928 17.5307C20.8438 17.2084 21.0649 16.7662 21.097 16.2281C21.1303 15.6688 20.9503 15.146 20.6289 14.7127L18.2194 16.5ZM19.981 17.1406V17.1371H16.981V17.1406H19.981ZM22.88 11.4484C22.8956 11.3605 22.9377 11.2503 23.0179 11.1466C23.0945 11.0473 23.1765 10.9919 23.2268 10.9653C23.2737 10.9405 23.2964 10.9385 23.2796 10.9418C23.2642 10.9449 23.2303 10.9494 23.1787 10.9494V13.9494C23.5801 13.9494 24.1194 13.8871 24.6298 13.617C25.198 13.3164 25.6924 12.7688 25.8337 11.9732L22.88 11.4484ZM23.1783 10.9494C22.3643 10.9496 21.5508 10.8937 20.7417 10.7819L20.3309 13.7536C21.276 13.8843 22.227 13.9497 23.1791 13.9494L23.1783 10.9494ZM20.704 10.7771C21.1951 10.8324 21.5002 11.1192 21.6421 11.3097C21.7835 11.4994 21.8407 11.6846 21.8638 11.8164C21.9019 12.0341 21.9012 12.4998 21.4915 12.8827L19.4431 10.6909C18.8784 11.2186 18.8356 11.9162 18.9088 12.3338C18.9493 12.5656 19.0433 12.8428 19.2362 13.1017C19.4296 13.3614 19.801 13.6944 20.3686 13.7583L20.704 10.7771ZM21.491 12.8832C21.5911 12.7897 21.9109 12.5624 22.4672 12.3679L21.4769 9.53605C20.6239 9.83435 19.9145 10.2507 19.4436 10.6904L21.491 12.8832ZM22.4673 12.3678C22.9901 12.1849 23.3228 12.086 23.5612 12.0398C23.6731 12.0181 23.7428 12.0126 23.7833 12.0119C23.8029 12.0116 23.8153 12.0125 23.8221 12.0132C23.8287 12.0138 23.8319 12.0146 23.8331 12.0148L24.5206 9.09467C23.5016 8.85476 22.4738 9.1873 21.4767 9.53611L22.4673 12.3678ZM23.8328 12.0148C23.3493 11.9008 23.1123 11.5733 23.0333 11.4397C22.9489 11.2971 22.8994 11.1418 22.8859 10.9681L25.8768 10.7351C25.8553 10.4587 25.7678 10.1702 25.6153 9.91235C25.4682 9.66355 25.1329 9.23893 24.5208 9.09473L23.8328 12.0148ZM22.8926 11.0352C22.9094 11.1712 22.9053 11.3098 22.8812 11.4425L25.8326 11.9802C25.9113 11.5479 25.9239 11.1041 25.8701 10.668L22.8926 11.0352ZM25.8569 11.7114V11.7108H22.8569V11.7114H25.8569Z" fill="#1F0000" fill-opacity="0.6" mask="url(#path-1-outside-1_137_13)"/>
</svg>
