<svg width="24" height="24" viewBox="0 0 24 24" fill="none" xmlns="http://www.w3.org/2000/svg">
<path fill-rule="evenodd" clip-rule="evenodd" d="M10.3094 2.24996H13.6908C13.9072 2.24982 14.0957 2.2497 14.2737 2.27813C14.977 2.39043 15.5856 2.82909 15.9146 3.46078C15.9978 3.62067 16.0573 3.79955 16.1256 4.00488L16.2373 4.33978C16.2562 4.39647 16.2616 4.41252 16.2661 4.42516C16.4413 4.90927 16.8953 5.23653 17.4099 5.24958C17.4235 5.24992 17.44 5.24998 17.5001 5.24998H20.5001C20.9143 5.24998 21.2501 5.58576 21.2501 5.99998C21.2501 6.41419 20.9143 6.74998 20.5001 6.74998H3.5C3.08579 6.74998 2.75 6.41419 2.75 5.99998C2.75 5.58576 3.08579 5.24998 3.5 5.24998H6.50008C6.56013 5.24998 6.5767 5.24992 6.59023 5.24958C7.10488 5.23653 7.55891 4.90929 7.73402 4.42518C7.73863 4.41245 7.74392 4.39675 7.76291 4.33978L7.87452 4.0049C7.94281 3.79958 8.00233 3.62067 8.08559 3.46078C8.41453 2.82909 9.02313 2.39043 9.72643 2.27813C9.90445 2.2497 10.093 2.24982 10.3094 2.24996ZM9.00815 5.24998C9.05966 5.14895 9.10531 5.04398 9.14458 4.93542C9.1565 4.90245 9.1682 4.86736 9.18322 4.82228L9.28302 4.52286C9.37419 4.24935 9.39519 4.19357 9.41601 4.15358C9.52566 3.94301 9.72853 3.7968 9.96296 3.75936C10.0075 3.75225 10.067 3.74998 10.3553 3.74998H13.6448C13.9331 3.74998 13.9927 3.75225 14.0372 3.75936C14.2716 3.7968 14.4745 3.94301 14.5842 4.15358C14.605 4.19357 14.626 4.24934 14.7171 4.52286L14.8169 4.8221L14.8556 4.93544C14.8949 5.04399 14.9405 5.14896 14.992 5.24998H9.00815Z" fill="#F53D47"/>
<path d="M5.91509 8.45009C5.88754 8.03679 5.53016 7.72409 5.11686 7.75164C4.70357 7.77919 4.39086 8.13657 4.41841 8.54987L4.88186 15.5016C4.96736 16.7843 5.03642 17.8205 5.19839 18.6336C5.36679 19.4789 5.65321 20.1849 6.2448 20.7384C6.8364 21.2919 7.55995 21.5307 8.4146 21.6425C9.23662 21.75 10.275 21.75 11.5606 21.75H12.4395C13.7251 21.75 14.7635 21.75 15.5856 21.6425C16.4402 21.5307 17.1638 21.2919 17.7554 20.7384C18.347 20.1849 18.6334 19.4789 18.8018 18.6336C18.9638 17.8205 19.0328 16.7844 19.1183 15.5016L19.5818 8.54987C19.6093 8.13657 19.2966 7.77919 18.8833 7.75164C18.47 7.72409 18.1126 8.03679 18.0851 8.45009L17.6251 15.3492C17.5353 16.6971 17.4713 17.6349 17.3307 18.3405C17.1943 19.0249 17.004 19.3872 16.7306 19.643C16.4572 19.8988 16.083 20.0646 15.391 20.1552C14.6776 20.2485 13.7376 20.25 12.3868 20.25H11.6134C10.2626 20.25 9.32255 20.2485 8.60915 20.1552C7.91715 20.0646 7.54299 19.8988 7.26958 19.643C6.99617 19.3872 6.80583 19.0249 6.66948 18.3405C6.52892 17.6349 6.46489 16.6971 6.37503 15.3492L5.91509 8.45009Z" fill="#F53D47"/>
<path d="M9.42546 10.2537C9.83762 10.2125 10.2052 10.5132 10.2464 10.9253L10.7464 15.9253C10.7876 16.3375 10.4869 16.705 10.0747 16.7463C9.66256 16.7875 9.29503 16.4868 9.25381 16.0746L8.75381 11.0746C8.7126 10.6624 9.01331 10.2949 9.42546 10.2537Z" fill="#F53D47"/>
<path d="M14.5747 10.2537C14.9869 10.2949 15.2876 10.6624 15.2464 11.0746L14.7464 16.0746C14.7052 16.4868 14.3376 16.7875 13.9255 16.7463C13.5133 16.705 13.2126 16.3375 13.2538 15.9253L13.7538 10.9253C13.795 10.5132 14.1626 10.2125 14.5747 10.2537Z" fill="#F53D47"/>
</svg>
