<svg fill="none" height="24" viewBox="0 0 28 24" width="28" xmlns="http://www.w3.org/2000/svg">
    <g id="Frame 2268">
        <g id="&#240;&#159;&#166;&#134; icon &#34;car sport&#34;">
            <path d="M4.4178 7C3.98483 6.99672 3.59303 7.18735 3.313 7.4877L3.86157 7.99915L3.313 7.4877C3.03518 7.78569 2.87982 8.17435 2.84908 8.56869L2.84902 8.56868L2.84841 8.578C2.83364 8.80373 2.85984 9.03211 2.92709 9.24903C2.93729 9.28192 2.94844 9.31457 2.96053 9.3469C2.63642 9.57318 2.2892 9.86149 2.04118 10.2539L2.04117 10.2539L2.04028 10.2554C1.82983 10.59 1.52211 11.2031 1.3387 13.6407L1.33864 13.6416C1.23702 15.0134 1.2196 16.4549 1.30292 17.4102L1.30297 17.4107C1.47224 19.335 1.79069 20.5111 1.81341 20.5931L1.81344 20.5932C1.89308 20.8803 2.04387 21.1507 2.26317 21.3652C2.34118 21.4414 2.42705 21.5097 2.51954 21.5682C2.58638 21.7988 2.69889 22.0172 2.85695 22.2049C3.13377 22.5336 3.53963 22.75 3.99637 22.75H6.79678C7.25353 22.75 7.65939 22.5336 7.9362 22.2049C8.0529 22.0663 8.14476 21.911 8.21175 21.7464C8.45895 21.7026 8.66689 21.6388 8.85244 21.5819L8.86444 21.5782L8.86445 21.5783L8.87309 21.5755C9.28211 21.4447 9.69915 21.3579 10.1194 21.3159L10.1194 21.316L10.1292 21.3149C11.6238 21.1456 13.1127 21.0875 13.9983 21.0875C14.8667 21.0875 16.4224 21.1457 17.9187 21.3149L17.9187 21.315L17.9285 21.316C18.3504 21.3581 18.7692 21.4452 19.1799 21.5767L19.1799 21.5767L19.1901 21.5798C19.3638 21.6328 19.5566 21.6913 19.7815 21.7348C19.8488 21.9035 19.9422 22.0627 20.0615 22.2043C20.3383 22.533 20.7442 22.7494 21.2009 22.7494H24.0013C24.4581 22.7494 24.8639 22.533 25.1407 22.2043C25.2972 22.0185 25.409 21.8027 25.4761 21.5746C25.5695 21.516 25.6562 21.4474 25.7349 21.3707C25.955 21.1562 26.1063 20.8852 26.1862 20.5976L26.1863 20.5972C26.209 20.5153 26.5274 19.3391 26.6967 17.4149L26.6968 17.4143C26.7801 16.4587 26.7637 15.0197 26.661 13.6447L26.661 13.6444L5.19605 7.75C5.22948 7.75024 5.26288 7.75281 5.29606 7.75772M4.4178 7C4.4194 7.00001 4.421 7.00003 4.4226 7.00004L4.41443 7.75V7H4.4178ZM4.4178 7H4.85213C4.79006 7.15121 4.73237 7.29601 4.67833 7.43164L4.67355 7.44363L4.67238 7.44641L4.67243 7.44643L4.67085 7.45041L4.87519 7.53183L5.19605 7.66697L5.19663 7.66722L5.26992 7.69809L5.29606 7.75772M5.29606 7.75772L5.30283 7.71195M5.29606 7.75772C5.31789 7.74815 5.34053 7.74138 5.36357 7.73753M5.30283 7.71195L20.2258 4.20769C18.281 3.05937 14.6984 3 13.9983 3C13.2982 3 9.71571 3.05937 7.77343 4.20591C6.46231 4.9807 5.82972 6.56825 5.36765 7.72783L5.36757 7.72803L5.36357 7.73753M5.30283 7.71195L5.36357 7.73753M5.36357 7.73753L5.36159 7.72565"
                  id="Vector"
                  stroke="white" stroke-opacity="0.6" stroke-width="1.5"/>
        </g>
    </g>
</svg>
