<svg width="24" height="19" viewBox="0 0 24 19" fill="none" xmlns="http://www.w3.org/2000/svg">
<path d="M23.9131 10.7006C23.7331 8.30122 23.4365 7.83394 23.3245 7.65819C23.067 7.25206 22.6549 6.98666 22.2188 6.70819C22.1942 6.69271 22.1729 6.67063 22.1566 6.64371C22.1404 6.61678 22.1297 6.58574 22.1252 6.55304C22.1208 6.52034 22.1229 6.48686 22.1312 6.45526C22.1396 6.42366 22.154 6.39479 22.1733 6.37094C22.2541 6.2737 22.3162 6.15685 22.3553 6.02842C22.3944 5.9 22.4096 5.76304 22.3999 5.62697C22.3811 5.38567 22.2866 5.16159 22.1351 4.99915C21.9837 4.8367 21.7863 4.74778 21.5823 4.75H20.8021C20.7687 4.75024 20.7353 4.75281 20.7021 4.75772C20.6794 4.74599 20.6558 4.73665 20.6316 4.72981C20.1695 3.57022 19.537 1.98253 18.2258 1.20769C16.281 0.0593748 12.6984 0 11.9983 0C11.2982 0 7.71571 0.0593749 5.77343 1.20591C4.46223 1.98075 3.82964 3.56844 3.36757 4.72803L3.36357 4.73753C3.34053 4.74138 3.31789 4.74815 3.29606 4.75772C3.26288 4.75281 3.22948 4.75024 3.19605 4.75H2.41443C2.21035 4.74778 2.01301 4.8367 1.86157 4.99915C1.71012 5.16159 1.61562 5.38567 1.59681 5.62697C1.58793 5.76273 1.60384 5.89916 1.64345 6.02694C1.68307 6.15473 1.74545 6.27085 1.82635 6.36738C1.8457 6.39123 1.86012 6.4201 1.86846 6.4517C1.87681 6.4833 1.87886 6.51678 1.87445 6.54948C1.87004 6.58218 1.85928 6.61322 1.84304 6.64014C1.82679 6.66707 1.8055 6.68914 1.78084 6.70462C1.34478 6.98487 0.930714 7.25028 0.675177 7.65462C0.56316 7.83275 0.267117 8.29766 0.08659 10.697C-0.0134247 12.0472 -0.0284269 13.4449 0.0500847 14.345C0.214609 16.2153 0.523154 17.3458 0.536156 17.3927C0.583502 17.5634 0.670656 17.7147 0.787498 17.8289C0.90434 17.9431 1.04608 18.0157 1.19625 18.0381V18.05C1.19625 18.302 1.28055 18.5436 1.4306 18.7218C1.58065 18.8999 1.78417 19 1.99637 19H4.79678C5.00899 19 5.2125 18.8999 5.36255 18.7218C5.5126 18.5436 5.5969 18.302 5.5969 18.05C6.02746 18.05 6.32701 17.9586 6.64456 17.8612C7.10301 17.7145 7.57163 17.6169 8.04476 17.5697C9.57049 17.3969 11.0877 17.3375 11.9983 17.3375C12.8905 17.3375 14.4747 17.3969 16.0029 17.5697C16.4779 17.6171 16.9484 17.715 17.4086 17.8624C17.7127 17.955 18.0012 18.0405 18.4008 18.0494C18.4008 18.3014 18.4851 18.543 18.6351 18.7212C18.7852 18.8993 18.9887 18.9994 19.2009 18.9994H22.0013C22.2135 18.9994 22.417 18.8993 22.5671 18.7212C22.7171 18.543 22.8014 18.3014 22.8014 18.0494V18.0423C22.952 18.0203 23.0941 17.9479 23.2114 17.8336C23.3286 17.7194 23.416 17.5679 23.4635 17.3969C23.4765 17.35 23.7851 16.2195 23.9496 14.3492C24.0281 13.4484 24.0141 12.0531 23.9131 10.7006ZM4.81379 5.54028C5.21384 4.53091 5.67141 3.38853 6.48603 2.907C7.66321 2.21113 10.1031 1.89762 11.9983 1.89762C13.8936 1.89762 16.3335 2.20875 17.5107 2.907C18.3253 3.38853 18.7808 4.5315 19.1829 5.54028L19.2329 5.66912C19.2621 5.74247 19.2751 5.8235 19.2705 5.90446C19.2658 5.98543 19.2438 6.06364 19.2065 6.13164C19.1692 6.19963 19.1178 6.25514 19.0573 6.29288C18.9968 6.33061 18.9292 6.34931 18.8609 6.34719C17.1991 6.29375 13.6986 6.12275 11.9983 6.12275C10.2981 6.12275 6.79758 6.29791 5.13333 6.35134C5.06501 6.35347 4.99736 6.33477 4.93685 6.29703C4.87634 6.2593 4.82498 6.20379 4.78767 6.13579C4.75037 6.0678 4.72835 5.98959 4.72373 5.90862C4.71911 5.82765 4.73204 5.74663 4.76128 5.67328C4.77878 5.62934 4.79728 5.58481 4.81379 5.54028ZM5.41037 10.2683C4.55015 10.3912 3.68442 10.4519 2.81799 10.45C2.28791 10.45 1.74133 10.2719 1.63982 9.71137C1.57031 9.33434 1.57781 9.12238 1.61531 8.90922C1.64682 8.72812 1.69683 8.59631 1.94686 8.55C2.59696 8.43125 2.96051 8.58028 4.02467 8.95256C4.73027 9.19897 5.23935 9.52731 5.52939 9.78737C5.67491 9.91562 5.5974 10.2505 5.41037 10.2683ZM16.481 15.1371C15.8229 15.2261 14.5067 15.1935 12.0133 15.1935C9.51998 15.1935 8.20428 15.2261 7.54619 15.1371C6.86709 15.0474 6.00146 14.285 6.59255 13.6058C6.9861 13.1581 7.90424 12.8232 9.12692 12.635C10.3496 12.4468 10.8672 12.35 12.0083 12.35C13.1495 12.35 13.6146 12.4094 14.8898 12.6356C16.165 12.8618 17.1286 13.2008 17.4241 13.6064C17.9632 14.3331 17.1596 15.0427 16.481 15.1406V15.1371ZM22.3569 9.71078C22.2569 10.2737 21.7068 10.4494 21.1787 10.4494C20.2957 10.4497 19.4134 10.389 18.5363 10.2677C18.3833 10.2505 18.3123 9.93165 18.4673 9.78678C18.7528 9.52019 19.2674 9.19837 19.972 8.95197C21.0362 8.57969 21.6498 8.43066 22.1768 8.55475C22.3054 8.58503 22.3734 8.74891 22.3814 8.85163C22.4166 9.13764 22.4083 9.42885 22.3569 9.71137V9.71078Z" fill="#F53D47"/>
</svg>
