<svg width="20" height="16" viewBox="0 0 20 16" fill="none" xmlns="http://www.w3.org/2000/svg">
<path d="M13.5 3.5C13.5 5.433 11.933 7 10 7C8.067 7 6.5 5.433 6.5 3.5C6.5 1.567 8.067 0 10 0C11.933 0 13.5 1.567 13.5 3.5Z" fill="#1F0000" fill-opacity="0.87"/>
<path d="M16 12.5C16 14.433 13.3137 16 10 16C6.68629 16 4 14.433 4 12.5C4 10.567 6.68629 9 10 9C13.3137 9 16 10.567 16 12.5Z" fill="#1F0000" fill-opacity="0.87"/>
<path d="M5.12207 1C5.29953 1 5.47278 1.01741 5.64007 1.05056C5.23251 1.77446 5.00002 2.61008 5.00002 3.5C5.00002 4.36825 5.22133 5.18482 5.61061 5.89636C5.45247 5.92583 5.28913 5.94126 5.12207 5.94126C3.70765 5.94126 2.56104 4.83512 2.56104 3.47063C2.56104 2.10614 3.70765 1 5.12207 1Z" fill="#1F0000" fill-opacity="0.87"/>
<path d="M3.44734 14.986C2.87942 14.3071 2.5 13.474 2.5 12.5C2.5 11.5558 2.85657 10.744 3.39578 10.0767C1.4911 10.2245 0 11.2662 0 12.5294C0 13.8044 1.5173 14.8538 3.44734 14.986Z" fill="#1F0000" fill-opacity="0.87"/>
<path d="M14.9999 3.5C14.9999 4.36825 14.7786 5.18482 14.3893 5.89636C14.5475 5.92583 14.7108 5.94126 14.8779 5.94126C16.2923 5.94126 17.4389 4.83512 17.4389 3.47063C17.4389 2.10614 16.2923 1 14.8779 1C14.7004 1 14.5272 1.01741 14.3599 1.05056C14.7674 1.77446 14.9999 2.61008 14.9999 3.5Z" fill="#1F0000" fill-opacity="0.87"/>
<path d="M16.5527 14.986C18.4827 14.8538 20 13.8044 20 12.5294C20 11.2662 18.5089 10.2245 16.6042 10.0767C17.1434 10.744 17.5 11.5558 17.5 12.5C17.5 13.474 17.1206 14.3071 16.5527 14.986Z" fill="#1F0000" fill-opacity="0.87"/>
</svg>
