<svg width="24" height="24" viewBox="0 0 24 24" fill="none" xmlns="http://www.w3.org/2000/svg">
<path d="M15.5 7.5C15.5 9.433 13.933 11 12 11C10.067 11 8.5 9.433 8.5 7.5C8.5 5.567 10.067 4 12 4C13.933 4 15.5 5.567 15.5 7.5Z" fill="#F53D47"/>
<path d="M18 16.5C18 18.433 15.3137 20 12 20C8.68629 20 6 18.433 6 16.5C6 14.567 8.68629 13 12 13C15.3137 13 18 14.567 18 16.5Z" fill="#F53D47"/>
<path d="M7.12205 5C7.29951 5 7.47276 5.01741 7.64005 5.05056C7.23249 5.77446 7 6.61008 7 7.5C7 8.36825 7.22131 9.18482 7.61059 9.89636C7.45245 9.92583 7.28912 9.94126 7.12205 9.94126C5.70763 9.94126 4.56102 8.83512 4.56102 7.47063C4.56102 6.10614 5.70763 5 7.12205 5Z" fill="#F53D47"/>
<path d="M5.44734 18.986C4.87942 18.3071 4.5 17.474 4.5 16.5C4.5 15.5558 4.85657 14.744 5.39578 14.0767C3.4911 14.2245 2 15.2662 2 16.5294C2 17.8044 3.5173 18.8538 5.44734 18.986Z" fill="#F53D47"/>
<path d="M16.9999 7.5C16.9999 8.36825 16.7786 9.18482 16.3893 9.89636C16.5475 9.92583 16.7108 9.94126 16.8779 9.94126C18.2923 9.94126 19.4389 8.83512 19.4389 7.47063C19.4389 6.10614 18.2923 5 16.8779 5C16.7004 5 16.5272 5.01741 16.3599 5.05056C16.7674 5.77446 16.9999 6.61008 16.9999 7.5Z" fill="#F53D47"/>
<path d="M18.5526 18.986C20.4826 18.8538 21.9999 17.8044 21.9999 16.5294C21.9999 15.2662 20.5088 14.2245 18.6041 14.0767C19.1433 14.744 19.4999 15.5558 19.4999 16.5C19.4999 17.474 19.1205 18.3071 18.5526 18.986Z" fill="#F53D47"/>
</svg>
