<svg fill="none" height="24" viewBox="0 0 24 24" width="24" xmlns="http://www.w3.org/2000/svg">
    <g id="Linear / Users / Users Group Two Rounded">
        <circle cx="12" cy="6" id="Vector" r="4" stroke="white" stroke-opacity="0.6" stroke-width="1.5"/>
        <path d="M18 9C19.6569 9 21 7.88071 21 6.5C21 5.11929 19.6569 4 18 4" id="Vector_2" stroke="white"
              stroke-linecap="round" stroke-opacity="0.6" stroke-width="1.5"/>
        <path d="M6 9C4.34315 9 3 7.88071 3 6.5C3 5.11929 4.34315 4 6 4" id="Vector_3" stroke="white"
              stroke-linecap="round" stroke-opacity="0.6" stroke-width="1.5"/>
        <ellipse cx="12" cy="17" id="Vector_4" rx="6" ry="4" stroke="white" stroke-opacity="0.6" stroke-width="1.5"/>
        <path d="M20 19C21.7542 18.6153 23 17.6411 23 16.5C23 15.3589 21.7542 14.3847 20 14" id="Vector_5"
              stroke="white" stroke-linecap="round" stroke-opacity="0.6" stroke-width="1.5"/>
        <path d="M4 19C2.24575 18.6153 1 17.6411 1 16.5C1 15.3589 2.24575 14.3847 4 14" id="Vector_6" stroke="white"
              stroke-linecap="round" stroke-opacity="0.6" stroke-width="1.5"/>
    </g>
</svg>
