<svg width="20" height="19" viewBox="0 0 20 19" fill="none" xmlns="http://www.w3.org/2000/svg">
<path d="M5.10743 1.17425L5.10427 1.17482C3.32338 1.49588 3.01243 1.74447 2.80225 2.07465L2.79652 2.08366L2.79053 2.0925C2.49689 2.52603 2.39815 2.85073 2.39603 3.12464C2.39393 3.39645 2.48621 3.71724 2.76195 4.14535C2.90369 4.34542 2.95699 4.4089 2.99372 4.44057C2.99587 4.44241 2.99744 4.44369 2.99852 4.44453C3.0036 4.44612 3.01656 4.44956 3.04102 4.45269C3.13248 4.4644 3.3008 4.46306 3.63771 4.42184C3.96479 4.38182 4.39308 4.31241 4.98653 4.21514C6.36797 3.9592 8.60372 3.7805 9.99686 3.7805C11.39 3.7805 13.6257 3.9592 15.0072 4.21514C15.6006 4.31241 16.0289 4.38182 16.356 4.42184C16.6929 4.46306 16.8612 4.4644 16.9527 4.45269C16.9772 4.44956 16.9901 4.44612 16.9952 4.44453C16.9963 4.44369 16.9979 4.44241 17 4.44057C17.0365 4.40908 17.0894 4.34615 17.2293 4.14881C17.5169 3.69035 17.6074 3.34351 17.5948 3.05936C17.5823 2.77762 17.464 2.45247 17.1316 2.04514C16.983 1.87068 16.5444 1.61161 15.7001 1.37152C14.8964 1.14297 13.8573 0.967124 12.681 0.861697C10.3278 0.650783 7.51577 0.729426 5.10743 1.17425ZM16.9978 4.44362C16.9978 4.44362 16.9976 4.44369 16.9972 4.44387L16.9978 4.44362Z" stroke="#1F0000" stroke-opacity="0.25" stroke-width="1.5"/>
<path d="M5.82593 6.35708L5.82595 6.35717L5.81421 6.35957C5.41154 6.44157 5.03225 6.5477 4.74795 6.64639C4.67185 6.6728 4.60582 6.69756 4.55023 6.71993C4.54556 6.74582 4.54065 6.77379 4.5355 6.80387C4.49318 7.05136 4.44191 7.40169 4.38478 7.82931C4.27081 8.68229 4.13706 9.81602 4.00924 10.9906C3.75094 13.3644 3.52625 15.8215 3.52625 16.4943C3.52625 16.5556 3.56006 16.7359 3.6722 16.9909C3.778 17.2315 3.92004 17.4619 4.06097 17.6218L4.07498 17.6377L4.08807 17.6544C4.274 17.891 4.33349 17.9539 4.40324 17.9994C4.46141 18.0373 4.58596 18.0984 4.94184 18.1465C5.69318 18.248 7.07274 18.25 9.997 18.25C12.9213 18.25 14.3008 18.248 15.0522 18.1465C15.408 18.0984 15.5326 18.0373 15.5908 17.9994C15.6605 17.9539 15.72 17.891 15.9059 17.6544L15.9144 17.6436L15.9233 17.6331C16.1238 17.3963 16.2229 17.2504 16.2888 17.0836C16.3559 16.914 16.4096 16.6675 16.4211 16.2151C16.4447 15.2775 16.2875 13.7094 15.9524 10.6477C15.7018 8.39592 15.586 7.3854 15.4394 6.87852C15.4031 6.75269 15.3745 6.69634 15.362 6.67587C15.3465 6.66825 15.2908 6.64433 15.108 6.58479L15.108 6.5849L15.0956 6.58061C14.8629 6.50026 14.2917 6.40795 13.4484 6.33192C12.6365 6.25871 11.6503 6.20646 10.6454 6.18029C9.64082 6.15413 8.62654 6.15426 7.75897 6.1845C6.87447 6.21534 6.19323 6.27615 5.82593 6.35708ZM15.3551 6.66612C15.3551 6.6663 15.3562 6.66794 15.3586 6.67052C15.3563 6.66724 15.3551 6.66594 15.3551 6.66612Z" stroke="#1F0000" stroke-opacity="0.25" stroke-width="1.5"/>
<path d="M2.19219 7.09496L2.18668 7.10073L2.18105 7.10638C2.18565 7.10176 2.18523 7.10246 2.18043 7.11038C2.16712 7.13239 2.12009 7.21014 2.05357 7.38425C1.97337 7.59419 1.88994 7.87562 1.80817 8.21654C1.64513 8.89627 1.50245 9.75407 1.40194 10.6245C1.30141 11.4951 1.24558 12.3566 1.25027 13.0434C1.25263 13.3881 1.2702 13.6724 1.30039 13.8843C1.32682 14.0698 1.35518 14.1392 1.3546 14.1433C1.38893 14.1892 1.43071 14.2289 1.47666 14.2612C1.48008 14.2252 1.48367 14.1884 1.48734 14.1511C1.51033 13.918 1.54319 13.6092 1.58303 13.2485C1.66278 12.5266 1.77136 11.5891 1.88703 10.6174C2.00249 9.64752 2.11055 8.72319 2.18969 8.0156C2.22929 7.66152 2.2614 7.36379 2.28354 7.14256C2.28872 7.09082 2.29329 7.04382 2.29725 7.00169C2.26462 7.02565 2.22916 7.05623 2.19219 7.09496ZM1.70357 14.3475C1.70352 14.3474 1.7021 14.3474 1.69944 14.3477L1.70357 14.3475Z" stroke="#1F0000" stroke-opacity="0.25" stroke-width="1.5"/>
<path d="M17.9039 7.10627C17.8451 7.0814 17.776 7.06361 17.7061 7.05495C17.7075 7.06974 17.7089 7.08492 17.7104 7.10051C17.7325 7.32954 17.7646 7.63461 17.8042 7.99505C17.8833 8.71533 17.9913 9.64804 18.1067 10.6174C18.2224 11.5891 18.3309 12.5266 18.4107 13.2485C18.4505 13.6092 18.4834 13.918 18.5064 14.1511C18.5101 14.1884 18.5136 14.2252 18.5171 14.2612C18.5643 14.228 18.6071 14.187 18.6419 14.1396C18.6809 14.0733 18.7433 13.9273 18.7494 13.4407C18.756 12.9079 18.6959 12.0757 18.5514 10.6799C18.4516 9.7746 18.3309 8.89959 18.2149 8.22091C18.1566 7.88029 18.101 7.59746 18.0515 7.38847C18.0266 7.28352 18.0053 7.20576 17.9884 7.15275C17.9884 7.15272 17.9884 7.1527 17.9884 7.15267C17.9719 7.14037 17.9451 7.12369 17.9039 7.10627ZM18.2902 14.3475C18.2901 14.3476 18.2914 14.3477 18.2943 14.3477L18.2902 14.3475Z" stroke="#1F0000" stroke-opacity="0.25" stroke-width="1.5"/>
</svg>
